<svg width="11" height="11" viewBox="0 0 11 11" fill="none" xmlns="http://www.w3.org/2000/svg">
<g clip-path="url(#clip0_2716_9987)">
<path d="M5.77416 9.9908C6.62666 9.25472 9.16536 6.87138 9.16536 4.58293C9.16536 3.61047 8.77906 2.67783 8.09142 1.9902C7.40379 1.30257 6.47116 0.91626 5.4987 0.91626C4.52624 0.91626 3.59361 1.30257 2.90597 1.9902C2.21834 2.67783 1.83203 3.61047 1.83203 4.58293C1.83203 6.87138 4.37074 9.25472 5.22324 9.9908C5.30266 10.0505 5.39933 10.0828 5.4987 10.0828C5.59806 10.0828 5.69474 10.0505 5.77416 9.9908Z" stroke="currentColor" stroke-width="1.12664" stroke-linecap="round" stroke-linejoin="round"/>
<path d="M5.5 5.95801C6.25939 5.95801 6.875 5.3424 6.875 4.58301C6.875 3.82362 6.25939 3.20801 5.5 3.20801C4.74061 3.20801 4.125 3.82362 4.125 4.58301C4.125 5.3424 4.74061 5.95801 5.5 5.95801Z" stroke="currentColor" stroke-width="1.12664" stroke-linecap="round" stroke-linejoin="round"/>
</g>
<defs>
<clipPath id="clip0_2716_9987">
<rect width="11" height="11" fill="currentColor"/>
</clipPath>
</defs>
</svg>
