<svg width="10" height="13" viewBox="0 0 10 13" fill="none" xmlns="http://www.w3.org/2000/svg">
<path d="M9.36693 4.93346C9.36693 8.25856 4.93346 11.5837 4.93346 11.5837C4.93346 11.5837 0.5 8.25856 0.5 4.93346C0.5 3.75764 0.967096 2.62997 1.79853 1.79853C2.62997 0.967096 3.75764 0.5 4.93346 0.5C6.10929 0.5 7.23696 0.967096 8.0684 1.79853C8.89983 2.62997 9.36693 3.75764 9.36693 4.93346Z" stroke="currentColor" stroke-linecap="round" stroke-linejoin="round"/>
<path d="M4.93208 6.59561C5.85028 6.59561 6.59463 5.85126 6.59463 4.93306C6.59463 4.01486 5.85028 3.27051 4.93208 3.27051C4.01388 3.27051 3.26953 4.01486 3.26953 4.93306C3.26953 5.85126 4.01388 6.59561 4.93208 6.59561Z" stroke="currentColor" stroke-linecap="round" stroke-linejoin="round"/>
</svg>
