<svg width="20" height="18" viewBox="0 0 20 18" fill="none" xmlns="http://www.w3.org/2000/svg">
<path d="M20 1.125C20 0.50368 19.4963 0 18.875 0H1.125C0.503677 0 0 0.50368 0 1.125C0 1.74632 0.503679 2.25 1.125 2.25H18.875C19.4963 2.25 20 1.74632 20 1.125ZM13.3333 9C13.3333 8.37868 12.8297 7.875 12.2083 7.875H1.125C0.503677 7.875 0 8.37868 0 9C0 9.62132 0.503679 10.125 1.125 10.125H12.2083C12.8297 10.125 13.3333 9.62132 13.3333 9ZM20 16.875C20 16.2537 19.4963 15.75 18.875 15.75H1.125C0.503677 15.75 0 16.2537 0 16.875C0 17.4963 0.503679 18 1.125 18H18.875C19.4963 18 20 17.4963 20 16.875Z" fill="currentColor"/>
</svg>
