<svg width="7" height="9" viewBox="0 0 7 9" fill="none" xmlns="http://www.w3.org/2000/svg">
<path d="M3.09925 5.41828C3.53309 5.41778 3.94902 5.24522 4.25579 4.93845C4.56256 4.63168 4.73512 4.21575 4.73562 3.78192V1.73646C4.73562 1.30247 4.56322 0.886255 4.25634 0.579377C3.94946 0.2725 3.53324 0.100098 3.09925 0.100098C2.66526 0.100098 2.24905 0.2725 1.94217 0.579377C1.63529 0.886255 1.46289 1.30247 1.46289 1.73646V3.78192C1.46339 4.21575 1.63595 4.63168 1.94272 4.93845C2.24949 5.24522 2.66542 5.41778 3.09925 5.41828ZM2.00835 1.73646C2.00835 1.44713 2.12328 1.16966 2.32787 0.965072C2.53245 0.760487 2.80993 0.645552 3.09925 0.645552C3.38858 0.645552 3.66606 0.760487 3.87064 0.965072C4.07523 1.16966 4.19016 1.44713 4.19016 1.73646V3.78192C4.19016 4.07124 4.07523 4.34872 3.87064 4.55331C3.66606 4.75789 3.38858 4.87283 3.09925 4.87283C2.80993 4.87283 2.53245 4.75789 2.32787 4.55331C2.12328 4.34872 2.00835 4.07124 2.00835 3.78192V1.73646Z" fill="currentColor" stroke="currentColor" stroke-width="0.2"/>
<path d="M5.55415 2.82739V3.78194C5.55415 5.13535 4.45302 6.23648 3.09961 6.23648C1.7462 6.23648 0.645064 5.13535 0.645064 3.78194V2.82739H0.0996094V3.78194C0.0996094 5.34421 1.30002 6.63115 2.82688 6.76941V8.28194H3.37234V6.76941C4.8992 6.63115 6.09961 5.34421 6.09961 3.78194V2.82739H5.55415Z" fill="currentColor" stroke="currentColor" stroke-width="0.2"/>
</svg>
