<svg width="13" height="14" viewBox="0 0 13 14" fill="none" xmlns="http://www.w3.org/2000/svg">
<path d="M4.5446 12.6338C4.61799 12.8838 4.77038 13.1033 4.97896 13.2595C5.18754 13.4156 5.44108 13.5 5.70164 13.5C5.96219 13.5 6.21574 13.4156 6.42432 13.2595C6.6329 13.1033 6.78529 12.8838 6.85868 12.6338M5.70019 1.80005V0.5M10.047 6.97771C10.1562 10.3035 10.9004 10.9004 10.9004 10.9004H0.5C0.5 10.9004 1.3667 9.79333 1.3667 6.13355C1.36735 5.45465 1.52734 4.78539 1.83381 4.1796C2.14029 3.57382 2.58468 3.04843 3.13123 2.64571C3.67777 2.243 4.31122 1.97419 4.9806 1.86093C5.64999 1.74767 6.33661 1.79312 6.98522 1.99361" stroke="currentColor" stroke-linecap="round" stroke-linejoin="round"/>
<path d="M8.95106 4.65929C8.62598 4.33422 8.44336 3.89332 8.44336 3.43359C8.44336 2.97387 8.62598 2.53297 8.95106 2.2079C9.27613 1.88282 9.71703 1.7002 10.1768 1.7002C10.6365 1.7002 11.0774 1.88282 11.4025 2.2079C11.7275 2.53297 11.9102 2.97387 11.9102 3.43359C11.9102 3.89332 11.7275 4.33422 11.4025 4.65929C11.0774 4.98437 10.6365 5.16699 10.1768 5.16699C9.71703 5.16699 9.27613 4.98437 8.95106 4.65929Z" fill="#053EE8" stroke="#0245F5" stroke-linecap="round" stroke-linejoin="round"/>
</svg>
