<svg width="13" height="10" viewBox="0 0 13 10" fill="none" xmlns="http://www.w3.org/2000/svg">
<path d="M12.1731 9.03436H0.3827C0.196227 9.03436 0.0683594 8.89487 0.0683594 8.71781V7.03845C0.0683594 6.86676 0.206882 6.74336 0.366717 6.73799H1.0913C0.968759 4.38796 2.43391 2.24718 4.64495 1.5014V0.380039C4.64495 0.219078 4.76749 0.0688477 4.93798 0.0688477H7.60721C7.7777 0.0688477 7.90024 0.219078 7.90557 0.380039V1.49603C10.1273 2.24182 11.5818 4.39869 11.4592 6.73799H12.1572C12.3276 6.73263 12.4768 6.85603 12.4768 7.03845V8.74464C12.4768 8.90023 12.3436 9.03436 12.1731 9.03436ZM7.29287 0.685864H5.25764V6.73263H7.29287V0.685864ZM4.64495 6.73263V2.15061C2.76956 2.8803 1.59211 4.73135 1.704 6.73799H4.64495V6.73263ZM10.8465 6.73263C10.9584 4.74744 9.79161 2.8803 7.90557 2.14524V6.72726H10.8465V6.73263ZM11.8695 7.34964H0.681057V8.41735H11.8695V7.34964Z" fill="currentColor" stroke="currentColor" stroke-width="0.137931"/>
<path d="M6.57807 4.83863C6.57807 5.01568 6.41291 5.10153 6.28504 5.1069C6.15185 5.11226 5.9707 5.02105 5.9707 4.85472V1.68916C5.9707 1.51747 6.12521 1.42089 6.26373 1.41553C6.40758 1.41553 6.57807 1.50674 6.57807 1.68916V4.83863Z" fill="currentColor" stroke="currentColor" stroke-width="0.137931"/>
</svg>
