<svg width="12" height="9" viewBox="0 0 12 9" fill="none" xmlns="http://www.w3.org/2000/svg">
<path d="M11.7241 0.261767V2.50548C11.659 2.66441 11.5193 2.77192 11.333 2.7579H9.63819V4.13685H11.3982C11.5612 4.15088 11.659 4.25371 11.7195 4.39862V6.64234C11.6543 6.81061 11.5146 6.89475 11.3284 6.89475H9.63354V8.59624C9.63354 8.80191 9.49851 8.95617 9.28433 8.96552H0.34921C0.153652 8.96552 0 8.81126 0 8.61961V6.55352C0.00465613 6.3572 0.148996 6.21229 0.344554 6.20762H2.08595V4.82866H0.321273C0.139684 4.80529 0 4.66973 0 4.48276V2.41667C0.00465613 2.22502 0.148996 2.07076 0.344554 2.07076H2.08595V0.345906C2.08595 0.149581 2.23494 0.00467441 2.43516 0H11.333C11.5286 0 11.659 0.079465 11.7288 0.261767H11.7241ZM6.55118 0.691813H2.7704V2.07076H6.54652V0.691813H6.55118ZM11.035 0.691813H7.23563V2.07076H11.035V0.691813ZM4.48851 2.7579H0.689107V4.13685H4.48851V2.7579ZM8.95374 2.7579H5.17762V4.13685H8.95374V2.7579ZM6.55118 4.82866H2.7704V6.20762H6.54652V4.82866H6.55118ZM11.035 4.82866H7.23563V6.20762H11.035V4.82866ZM4.48851 6.89475H0.689107V8.2737H4.48851V6.89475ZM8.95374 6.89475H5.17762V8.2737H8.95374V6.89475Z" fill="currentColor"/>
</svg>
