<svg width="10" height="10" viewBox="0 0 10 10" fill="none" xmlns="http://www.w3.org/2000/svg">
<path d="M1.49585 9.23803C0.886544 9.23803 0.392578 8.75648 0.392578 8.16191V3.83679C0.392578 3.51002 0.545164 3.20045 0.806371 2.99653L3.84103 0.629064C4.03492 0.476532 4.27877 0.393066 4.53051 0.393066C4.78225 0.393066 5.0261 0.476532 5.21999 0.629064L8.25413 2.99653C8.51585 3.20045 8.66844 3.51002 8.66844 3.83679V8.16191C8.66844 8.75648 8.17448 9.23803 7.56517 9.23803H1.49585Z" stroke="currentColor" stroke-width="0.786207" stroke-linecap="round" stroke-linejoin="round"/>
<path d="M3.15234 8.66459V5.96201C3.15234 5.70136 3.26133 5.45139 3.45534 5.26709C3.64934 5.08279 3.91246 4.97925 4.18683 4.97925H4.70407C4.97843 4.97925 5.24155 5.08279 5.43556 5.26709C5.62956 5.45139 5.73855 5.70136 5.73855 5.96201V8.66459" stroke="currentColor" stroke-width="0.786207" stroke-linecap="round" stroke-linejoin="round"/>
</svg>
