<svg width="12" height="11" viewBox="0 0 12 11" fill="none" xmlns="http://www.w3.org/2000/svg">
<path d="M11.5 3.75672C11.5019 4.61159 11.1758 5.43396 10.5903 6.0512C9.24772 7.45733 7.9453 8.92346 6.55323 10.2779C6.23368 10.5835 5.72712 10.5724 5.42187 10.2529L1.40957 6.05175C0.196809 4.78173 0.196809 2.7317 1.40957 1.46224C1.6962 1.15834 2.04095 0.916408 2.4229 0.7511C2.80485 0.585793 3.21606 0.500556 3.6316 0.500556C4.04714 0.500556 4.45835 0.585793 4.8403 0.7511C5.22225 0.916408 5.56699 1.15834 5.85363 1.46224L5.99993 1.61446L6.14568 1.46224C6.43266 1.15876 6.77745 0.91706 7.15932 0.751695C7.54118 0.586329 7.95223 0.500714 8.3677 0.5C9.20371 0.5 10.0029 0.846672 10.5897 1.46224C11.1755 2.07938 11.5017 2.90177 11.5 3.75672Z" stroke="currentColor" stroke-linejoin="round"/>
</svg>
