<svg width="12" height="5" viewBox="0 0 12 5" fill="none" xmlns="http://www.w3.org/2000/svg">
<path d="M3.48349 2.45172H7.61252M3.99962 0.387207H2.45123C1.90369 0.387207 1.37857 0.604718 0.991402 0.99189C0.60423 1.37906 0.386719 1.90418 0.386719 2.45172C0.386719 2.99927 0.60423 3.52438 0.991402 3.91156C1.37857 4.29873 1.90369 4.51624 2.45123 4.51624H3.99962M7.0964 0.387207H8.64478C9.19233 0.387207 9.71744 0.604718 10.1046 0.99189C10.4918 1.37906 10.7093 1.90418 10.7093 2.45172C10.7093 2.99927 10.4918 3.52438 10.1046 3.91156C9.71744 4.29873 9.19233 4.51624 8.64478 4.51624H7.0964" stroke="currentColor" stroke-width="0.774194" stroke-linecap="round" stroke-linejoin="round"/>
</svg>
