<svg width="18" height="18" viewBox="0 0 18 18" fill="none" xmlns="http://www.w3.org/2000/svg">
<path d="M8.74803 0.616211L7.03152 5.77189C6.94395 6.04289 6.79159 6.28926 6.58724 6.49034C6.38288 6.69141 6.13248 6.84132 5.85706 6.92748L0.617188 8.61641L5.85706 10.3053C6.13248 10.3915 6.38288 10.5414 6.58724 10.7425C6.79159 10.9436 6.94395 11.1899 7.03152 11.4609L8.74803 16.6166L10.4645 11.4609C10.5521 11.1899 10.7045 10.9436 10.9088 10.7425C11.1132 10.5414 11.3636 10.3915 11.639 10.3053L16.8789 8.61641L11.639 6.92748C11.3636 6.84132 11.1132 6.69141 10.9088 6.49034C10.7045 6.28926 10.5521 6.04289 10.4645 5.77189L8.74803 0.616211Z" stroke="currentColor" stroke-width="1.23262" stroke-linecap="round" stroke-linejoin="round"/>
<path d="M2.42578 0.616211V4.17185" stroke="currentColor" stroke-width="1.23262" stroke-linecap="round" stroke-linejoin="round"/>
<path d="M0.617188 2.3938H4.23089" stroke="currentColor" stroke-width="1.23262" stroke-linecap="round" stroke-linejoin="round"/>
<path d="M15.0723 13.0605V16.6162" stroke="currentColor" stroke-width="1.23262" stroke-linecap="round" stroke-linejoin="round"/>
<path d="M13.2656 14.8389H16.8793" stroke="currentColor" stroke-width="1.23262" stroke-linecap="round" stroke-linejoin="round"/>
</svg>
