<svg width="11" height="10" viewBox="0 0 11 10" fill="none" xmlns="http://www.w3.org/2000/svg">
<path d="M8.50004 2.50001V1C8.50004 0.867394 8.44736 0.740216 8.3536 0.646448C8.25983 0.552679 8.13265 0.5 8.00004 0.5H1.50001C1.23479 0.5 0.980432 0.605358 0.792895 0.792895C0.605357 0.980433 0.5 1.23479 0.5 1.50001C0.5 1.76523 0.605357 2.01958 0.792895 2.20712C0.980432 2.39466 1.23479 2.50001 1.50001 2.50001H9.00005C9.13265 2.50001 9.25983 2.55269 9.3536 2.64646C9.44737 2.74023 9.50005 2.86741 9.50005 3.00002V5.00003M9.50005 5.00003H8.00004C7.73482 5.00003 7.48047 5.10539 7.29293 5.29293C7.10539 5.48046 7.00003 5.73482 7.00003 6.00004C7.00003 6.26526 7.10539 6.51961 7.29293 6.70715C7.48047 6.89469 7.73482 7.00004 8.00004 7.00004H9.50005C9.63266 7.00004 9.75984 6.94737 9.8536 6.8536C9.94737 6.75983 10.0001 6.63265 10.0001 6.50004V5.50003C10.0001 5.36742 9.94737 5.24025 9.8536 5.14648C9.75984 5.05271 9.63266 5.00003 9.50005 5.00003Z" stroke="currentColor" stroke-linecap="round" stroke-linejoin="round"/>
<path d="M0.5 1.5V8.50005C0.5 8.76527 0.605357 9.01962 0.792895 9.20716C0.980432 9.3947 1.23479 9.50005 1.50001 9.50005H9.00005C9.13265 9.50005 9.25983 9.44738 9.3536 9.35361C9.44737 9.25984 9.50005 9.13266 9.50005 9.00005V7.00004" stroke="currentColor" stroke-linecap="round" stroke-linejoin="round"/>
</svg>
