<svg width="20" height="15" viewBox="0 0 20 15" fill="none" xmlns="http://www.w3.org/2000/svg">
<path d="M18.9529 14.0498H0.541636C0.250451 14.0498 0.0507812 13.832 0.0507812 13.5555V10.9331C0.0507812 10.665 0.26709 10.4723 0.516678 10.4639H1.64814C1.45679 6.79427 3.74467 3.45136 7.1973 2.28679V0.535741C7.1973 0.284395 7.38865 0.0498047 7.65488 0.0498047H11.823C12.0892 0.0498047 12.2806 0.284395 12.2889 0.535741V2.27841C15.7581 3.44298 18.0294 6.81103 17.838 10.4639H18.9279C19.1941 10.4556 19.4271 10.6482 19.4271 10.9331V13.5974C19.4271 13.8404 19.2191 14.0498 18.9529 14.0498ZM11.3321 1.0133H8.15405V10.4556H11.3321V1.0133ZM7.1973 10.4556V3.30055C4.26881 4.43999 2.43018 7.33048 2.60489 10.4639H7.1973V10.4556ZM16.8813 10.4556C17.056 7.35561 15.234 4.43999 12.2889 3.29217V10.4472H16.8813V10.4556ZM18.4786 11.419H1.00753V13.0863H18.4786V11.419Z" fill="currentColor" stroke="currentColor" stroke-width="0.1"/>
<path d="M10.218 7.49813C10.218 7.77462 9.96006 7.90867 9.76039 7.91705C9.5524 7.92542 9.26953 7.78299 9.26953 7.52327V2.58012C9.26953 2.31202 9.5108 2.16121 9.72711 2.15283C9.95174 2.15283 10.218 2.29526 10.218 2.58012V7.49813Z" fill="currentColor" stroke="currentColor" stroke-width="0.1"/>
</svg>
