<svg width="11" height="11" viewBox="0 0 11 11" fill="none" xmlns="http://www.w3.org/2000/svg">
<path d="M0.5 10.5V9.38889C0.5 8.79952 0.734126 8.23429 1.15087 7.81754C1.56762 7.40079 2.13285 7.16667 2.72222 7.16667H4.94444C5.53381 7.16667 6.09905 7.40079 6.51579 7.81754C6.93254 8.23429 7.16667 8.79952 7.16667 9.38889V10.5M7.72222 0.572222C8.20023 0.694612 8.62391 0.972612 8.92647 1.36239C9.22902 1.75218 9.39325 2.23157 9.39325 2.725C9.39325 3.21843 9.22902 3.69782 8.92647 4.08761C8.62391 4.47739 8.20023 4.75539 7.72222 4.87778M10.5 10.5V9.38889C10.4972 8.89842 10.3322 8.42267 10.0307 8.03578C9.72923 7.64889 9.30824 7.37261 8.83333 7.25M1.61111 2.72222C1.61111 3.31159 1.84524 3.87682 2.26198 4.29357C2.67873 4.71032 3.24396 4.94444 3.83333 4.94444C4.4227 4.94444 4.98793 4.71032 5.40468 4.29357C5.82143 3.87682 6.05556 3.31159 6.05556 2.72222C6.05556 2.13285 5.82143 1.56762 5.40468 1.15087C4.98793 0.734126 4.4227 0.5 3.83333 0.5C3.24396 0.5 2.67873 0.734126 2.26198 1.15087C1.84524 1.56762 1.61111 2.13285 1.61111 2.72222Z" stroke="currentColor" stroke-linecap="round" stroke-linejoin="round"/>
</svg>
