<svg width="18" height="20" viewBox="0 0 18 20" fill="none" xmlns="http://www.w3.org/2000/svg">
<path d="M15.0295 19.1001H2.81961C2.52714 19.1001 2.23756 19.0423 1.96749 18.9301C1.69743 18.8178 1.4522 18.6533 1.24591 18.446C1.03962 18.2386 0.876335 17.9926 0.765426 17.722C0.654517 17.4514 0.598175 17.1615 0.599637 16.869V6.45736C0.599637 6.10401 0.766135 5.77842 1.04363 5.56475L8.24004 0.823258C8.43187 0.678441 8.66567 0.600098 8.90603 0.600098C9.14638 0.600098 9.38019 0.678441 9.57202 0.823258L16.8054 5.56475C17.0829 5.77842 17.2494 6.10401 17.2494 6.45736V16.869C17.2509 17.1615 17.1945 17.4514 17.0836 17.722C16.9727 17.9926 16.8094 18.2386 16.6031 18.446C16.3969 18.6533 16.1516 18.8178 15.8816 18.9301C15.6115 19.0423 15.3219 19.1001 15.0295 19.1001Z" stroke="currentColor" stroke-width="1.2" stroke-miterlimit="10" stroke-linejoin="round"/>
<path d="M6.89038 9.85059H10.9603C11.3673 9.85059 11.7003 10.1836 11.7003 10.5906V19.1005H6.15039V10.5906C6.15039 10.1836 6.48339 9.85059 6.89038 9.85059Z" stroke="currentColor" stroke-width="1.2" stroke-miterlimit="10" stroke-linejoin="round"/>
</svg>
