<svg width="22" height="22" viewBox="0 0 22 22" fill="none" xmlns="http://www.w3.org/2000/svg">
<path d="M13.5996 1.0581C12.6287 0.753702 11.6171 0.599257 10.5996 0.600101C5.07661 0.600101 0.599609 5.0771 0.599609 10.6001C0.599609 16.1231 5.07661 20.6001 10.5996 20.6001C16.1226 20.6001 20.5996 16.1231 20.5996 10.6001C20.6005 9.58262 20.446 8.57098 20.1416 7.6001" stroke="currentColor" stroke-width="1.2" stroke-linecap="round" stroke-linejoin="round"/>
<path d="M4.09961 18.1001L4.65961 17.1201C5.09691 16.3545 5.72887 15.7182 6.49141 15.2757C7.25395 14.8331 8.11995 14.6 9.00161 14.6001H12.1976C13.0791 14.6002 13.9449 14.8334 14.7072 15.2759C15.4696 15.7185 16.1014 16.3547 16.5386 17.1201L17.0986 18.1001M13.5996 8.6001C13.5996 9.39575 13.2835 10.1588 12.7209 10.7214C12.1583 11.284 11.3953 11.6001 10.5996 11.6001C9.80396 11.6001 9.0409 11.284 8.47829 10.7214C7.91568 10.1588 7.59961 9.39575 7.59961 8.6001C7.59961 7.80445 7.91568 7.04139 8.47829 6.47878C9.0409 5.91617 9.80396 5.6001 10.5996 5.6001C11.3953 5.6001 12.1583 5.91617 12.7209 6.47878C13.2835 7.04139 13.5996 7.80445 13.5996 8.6001ZM17.5736 0.621098C17.5796 0.593098 17.6196 0.593098 17.6256 0.621098C17.7745 1.34844 18.1337 2.01604 18.6587 2.54102C19.1837 3.06599 19.8513 3.42522 20.5786 3.5741C20.6066 3.5801 20.6066 3.6201 20.5786 3.6261C19.8513 3.77498 19.1837 4.1342 18.6587 4.65918C18.1337 5.18415 17.7745 5.85175 17.6256 6.5791C17.6196 6.6071 17.5796 6.6071 17.5736 6.5791C17.4247 5.85175 17.0655 5.18415 16.5405 4.65918C16.0156 4.1342 15.348 3.77498 14.6206 3.6261C14.5926 3.6201 14.5926 3.5801 14.6206 3.5741C15.348 3.42522 16.0156 3.06599 16.5405 2.54102C17.0655 2.01604 17.4247 1.34844 17.5736 0.621098Z" stroke="currentColor" stroke-width="1.2" stroke-linecap="round" stroke-linejoin="round"/>
</svg>
