<svg width="18" height="20" viewBox="0 0 18 20" fill="none" xmlns="http://www.w3.org/2000/svg">
<path d="M11.0352 0.604004V4.2C11.0352 4.687 11.2292 5.155 11.5752 5.5C11.922 5.84537 12.3917 6.03919 12.8812 6.039H17.0062" stroke="currentColor" stroke-width="1.2" stroke-linecap="round" stroke-linejoin="round"/>
<path d="M4.49661 5.4981H7.76161M4.49661 9.8511H13.2026M4.49661 14.2041H13.2026M17.0996 6.4191V14.9871C17.0798 15.5475 16.9492 16.0985 16.7154 16.6082C16.4817 17.118 16.1493 17.5764 15.7376 17.9571C15.3255 18.3396 14.8421 18.6371 14.315 18.8327C13.7879 19.0283 13.2274 19.1182 12.6656 19.0971H5.07561C4.51035 19.1229 3.94555 19.0369 3.41359 18.8441C2.88162 18.6512 2.39296 18.3552 1.97561 17.9731C1.55988 17.5914 1.22415 17.1308 0.987936 16.6182C0.751719 16.1056 0.619721 15.5512 0.599609 14.9871V4.7131C0.619464 4.15268 0.750032 3.60172 0.983789 3.09199C1.21755 2.58225 1.54987 2.12382 1.96161 1.7431C2.37369 1.36062 2.85709 1.06308 3.38419 0.867479C3.9113 0.671874 4.47178 0.582038 5.03361 0.603103H10.7476C11.6199 0.600021 12.4619 0.922767 13.1086 1.5081L16.0686 4.2301C16.3845 4.50218 16.6395 4.83771 16.8171 5.21485C16.9948 5.59199 17.091 6.00231 17.0996 6.4191Z" stroke="currentColor" stroke-width="1.2" stroke-linecap="round" stroke-linejoin="round"/>
</svg>
