<svg width="132" height="132" viewBox="0 0 132 132" fill="none" xmlns="http://www.w3.org/2000/svg">

<g id="Home Page">

<g id="Illustration" clip-path="url(#clip0_2066_18)">
<g id="Open house">
<g id="Group">
<g id="Group_2">
<g id="Group_3">
<path id="Vector" d="M10.6698 84.3276H97.9062V24.5396L8.67923 25.3301L8.68575 82.1853C8.68575 83.3683 9.57437 84.3276 10.6698 84.3276Z" fill="#FCFDFF"/>
<path id="Vector_2" d="M10.6709 84.4863H97.9073C97.9955 84.4863 98.0664 84.4149 98.0664 84.3276V24.5395C98.0664 24.497 98.0498 24.4566 98.0194 24.4263C97.989 24.3967 97.9449 24.383 97.9059 24.3801L8.67887 25.1707C8.59138 25.1714 8.52125 25.2421 8.52125 25.3294L8.52775 82.1846C8.52775 83.4534 9.48942 84.4856 10.6716 84.4856L10.6709 84.4863ZM97.7475 84.1682H10.6702C9.66367 84.1682 8.84518 83.2788 8.84518 82.1853L8.83866 25.4873L97.7468 24.6997V84.1682H97.7475Z" fill="#26428B"/>
</g>
<path id="Vector_3" d="M51.8099 33.6923L102.999 33.437C103.715 33.4334 104.186 32.6919 103.884 32.0449L88.8404 11.5899C88.5092 11.1391 87.98 10.8765 87.4196 10.8873C81.3929 11.0056 46.0096 10.0247 46.0096 10.0247L51.8092 33.6916L51.8099 33.6923Z" fill="black"/>
<g id="Group_4">
<path id="Vector_4" d="M78.6399 57.6226H84.6998C85.0678 57.6226 85.3672 57.324 85.3672 56.9569V47.7061C85.3672 47.3389 85.0678 47.0403 84.6998 47.0403H78.6399C78.2719 47.0403 77.9725 47.3389 77.9725 47.7061V56.9569C77.9725 57.324 78.2719 57.6226 78.6399 57.6226ZM84.6991 47.3584C84.8914 47.3584 85.0476 47.5142 85.0476 47.7061V56.9569C85.0476 57.1487 84.8914 57.3045 84.6991 57.3045H78.6392C78.4468 57.3045 78.2907 57.1487 78.2907 56.9569V47.7061C78.2907 47.5142 78.4468 47.3584 78.6392 47.3584H84.6991Z" fill="#26428B"/>
<path id="Vector_5" d="M86.9901 57.6226H92.9473C93.3435 57.6226 93.666 57.3009 93.666 56.9056V47.7565C93.666 47.3613 93.3435 47.0396 92.9473 47.0396H86.9901C86.5938 47.0396 86.2713 47.3613 86.2713 47.7565V56.9056C86.2713 57.3009 86.5938 57.6226 86.9901 57.6226ZM92.9473 47.3584C93.1678 47.3584 93.3471 47.5373 93.3471 47.7573V56.9064C93.3471 57.1264 93.1678 57.3053 92.9473 57.3053H86.9901C86.7695 57.3053 86.5902 57.1264 86.5902 56.9064V47.7573C86.5902 47.5373 86.7695 47.3584 86.9901 47.3584H92.9473Z" fill="#26428B"/>
<path id="Vector_6" d="M78.4933 69.0274H84.8432C85.131 69.0274 85.3652 68.7937 85.3652 68.5066V58.9659C85.3652 58.6788 85.131 58.4451 84.8432 58.4451H78.4933C78.2056 58.4451 77.9713 58.6788 77.9713 58.9659V68.5066C77.9713 68.7937 78.2056 69.0274 78.4933 69.0274ZM84.8432 58.7632C84.9553 58.7632 85.0464 58.854 85.0464 58.9659V68.5066C85.0464 68.6184 84.9553 68.7093 84.8432 68.7093H78.4933C78.3813 68.7093 78.2901 68.6184 78.2901 68.5066V58.9659C78.2901 58.854 78.3813 58.7632 78.4933 58.7632H84.8432Z" fill="#26428B"/>
<path id="Vector_7" d="M87.0052 69.0272H92.9336C93.3377 69.0272 93.666 68.699 93.666 68.2965V59.1762C93.666 58.773 93.337 58.4456 92.9336 58.4456H87.0052C86.6011 58.4456 86.2728 58.7738 86.2728 59.1762V68.2965C86.2728 68.6997 86.6018 69.0272 87.0052 69.0272ZM92.9336 58.7629C93.162 58.7629 93.3479 58.9483 93.3479 59.1762V68.2965C93.3479 68.5244 93.162 68.7098 92.9336 68.7098H87.0052C86.7768 68.7098 86.5909 68.5244 86.5909 68.2965V59.1762C86.5909 58.9483 86.7768 58.7629 87.0052 58.7629H92.9336Z" fill="#26428B"/>
</g>
</g>
<g id="Group_5">
<g id="Group_6">
<path id="Vector_8" d="M72.2068 82.6824L72.5625 26.0796L38.143 10.7532L5.26065 26.3046L5.91428 83.5688C5.93453 84.3435 6.6048 84.9595 7.42041 84.953L70.3825 84.4308C71.3933 84.4222 72.2068 83.6417 72.2068 82.6824Z" fill="#FCFDFF"/>
<path id="Vector_9" d="M7.40702 85.1116C7.41209 85.1116 7.41643 85.1116 7.42149 85.1116L70.3836 84.5894C71.4768 84.58 72.3662 83.7253 72.3669 82.683L72.7227 26.0802C72.7227 26.0175 72.6858 25.9598 72.6279 25.9338L38.2084 10.6074C38.1657 10.5886 38.1173 10.5893 38.0754 10.6088L5.19303 26.1603C5.13663 26.187 5.1012 26.244 5.10193 26.306L5.75557 83.5702C5.77726 84.4235 6.51766 85.1116 7.40775 85.1116H7.40702ZM72.4023 26.1827L72.0473 82.6815C72.0473 83.5514 71.2997 84.2648 70.3807 84.272L7.41859 84.7943C7.41498 84.7943 7.41064 84.7943 7.40702 84.7943C6.68758 84.7943 6.09035 84.2453 6.07299 83.5651L5.42079 26.4055L38.1448 10.9291L72.4023 26.1834V26.1827Z" fill="#26428B"/>
</g>
<g id="Group_7">
<path id="Vector_10" d="M11.0696 57.95H17.1295C17.4975 57.95 17.7969 57.6514 17.7969 57.2843V48.0486C17.7969 47.6814 17.4975 47.3828 17.1295 47.3828H11.0696C10.7015 47.3828 10.4022 47.6814 10.4022 48.0486V57.2843C10.4022 57.6514 10.7015 57.95 11.0696 57.95ZM17.1288 47.7016C17.3211 47.7016 17.4773 47.8574 17.4773 48.0493V57.285C17.4773 57.4768 17.3211 57.6326 17.1288 57.6326H11.0689C10.8765 57.6326 10.7203 57.4768 10.7203 57.285V48.0493C10.7203 47.8574 10.8765 47.7016 11.0689 47.7016H17.1288Z" fill="#26428B"/>
<path id="Vector_11" d="M19.4197 57.95H25.377C25.7732 57.95 26.0957 57.6283 26.0957 57.233V48.0998C26.0957 47.7045 25.7732 47.3828 25.377 47.3828H19.4197C19.0235 47.3828 18.701 47.7045 18.701 48.0998V57.233C18.701 57.6283 19.0235 57.95 19.4197 57.95ZM25.377 47.7016C25.5975 47.7016 25.7768 47.8805 25.7768 48.1005V57.2338C25.7768 57.4538 25.5975 57.6326 25.377 57.6326H19.4197C19.1992 57.6326 19.0199 57.4538 19.0199 57.2338V48.1005C19.0199 47.8805 19.1992 47.7016 19.4197 47.7016H25.377Z" fill="#26428B"/>
<path id="Vector_12" d="M10.923 69.3372H17.2729C17.5607 69.3372 17.7949 69.1035 17.7949 68.8165V59.2915C17.7949 59.0045 17.5607 58.7708 17.2729 58.7708H10.923C10.6352 58.7708 10.401 59.0045 10.401 59.2915V68.8165C10.401 69.1035 10.6352 69.3372 10.923 69.3372ZM17.2729 59.0888C17.385 59.0888 17.4761 59.1797 17.4761 59.2915V68.8165C17.4761 68.9283 17.385 69.0191 17.2729 69.0191H10.923C10.8109 69.0191 10.7198 68.9283 10.7198 68.8165V59.2915C10.7198 59.1797 10.8109 59.0888 10.923 59.0888H17.2729Z" fill="#26428B"/>
<path id="Vector_13" d="M19.4349 69.3373H25.3632C25.7674 69.3373 26.0957 69.0091 26.0957 68.6066V59.5022C26.0957 59.099 25.7667 58.7715 25.3632 58.7715H19.4349C19.0307 58.7715 18.7025 59.0997 18.7025 59.5022V68.6066C18.7025 69.0098 19.0315 69.3373 19.4349 69.3373ZM25.3632 59.0889C25.5917 59.0889 25.7776 59.2742 25.7776 59.5022V68.6066C25.7776 68.8345 25.5917 69.0199 25.3632 69.0199H19.4349C19.2064 69.0199 19.0206 68.8345 19.0206 68.6066V59.5022C19.0206 59.2742 19.2064 59.0889 19.4349 59.0889H25.3632Z" fill="#26428B"/>
</g>
<g id="Group_8">
<path id="Vector_14" d="M31.7981 28.423H37.858C38.226 28.423 38.5254 28.1244 38.5254 27.7572V20.4771C38.5254 20.1099 38.226 19.8113 37.858 19.8113H31.7981C31.4301 19.8113 31.1307 20.1099 31.1307 20.4771V27.7572C31.1307 28.1244 31.4301 28.423 31.7981 28.423ZM37.858 20.1301C38.0503 20.1301 38.2065 20.2859 38.2065 20.4778V27.758C38.2065 27.9498 38.0503 28.1056 37.858 28.1056H31.7981C31.6058 28.1056 31.4496 27.9498 31.4496 27.758V20.4778C31.4496 20.2859 31.6058 20.1301 31.7981 20.1301H37.858Z" fill="#26428B"/>
<path id="Vector_15" d="M40.1502 28.423H46.1075C46.5037 28.423 46.8262 28.1013 46.8262 27.706V20.5283C46.8262 20.133 46.5037 19.8113 46.1075 19.8113H40.1502C39.754 19.8113 39.4315 20.133 39.4315 20.5283V27.706C39.4315 28.1013 39.754 28.423 40.1502 28.423ZM46.1075 20.1301C46.328 20.1301 46.5073 20.309 46.5073 20.529V27.7068C46.5073 27.9268 46.328 28.1056 46.1075 28.1056H40.1502C39.9297 28.1056 39.7504 27.9268 39.7504 27.7068V20.529C39.7504 20.309 39.9297 20.1301 40.1502 20.1301H46.1075Z" fill="#26428B"/>
<path id="Vector_16" d="M31.6535 37.6376H38.0033C38.2911 37.6376 38.5254 37.4039 38.5254 37.1168V29.5474C38.5254 29.2603 38.2911 29.0266 38.0033 29.0266H31.6535C31.3657 29.0266 31.1314 29.2603 31.1314 29.5474V37.1168C31.1314 37.4039 31.3657 37.6376 31.6535 37.6376ZM38.0033 29.3447C38.1154 29.3447 38.2065 29.4356 38.2065 29.5474V37.1168C38.2065 37.2286 38.1154 37.3195 38.0033 37.3195H31.6535C31.5414 37.3195 31.4503 37.2286 31.4503 37.1168V29.5474C31.4503 29.4356 31.5414 29.3447 31.6535 29.3447H38.0033Z" fill="#26428B"/>
<path id="Vector_17" d="M40.1654 37.6379H46.0937C46.4979 37.6379 46.8262 37.3097 46.8262 36.9072V29.7583C46.8262 29.3551 46.4972 29.0276 46.0937 29.0276H40.1654C39.7612 29.0276 39.4329 29.3558 39.4329 29.7583V36.9072C39.4329 37.3104 39.7619 37.6379 40.1654 37.6379ZM46.0937 29.345C46.3222 29.345 46.508 29.5303 46.508 29.7583V36.9072C46.508 37.1351 46.3222 37.3205 46.0937 37.3205H40.1654C39.9369 37.3205 39.7511 37.1351 39.7511 36.9072V29.7583C39.7511 29.5303 39.9369 29.345 40.1654 29.345H46.0937Z" fill="#26428B"/>
</g>
<g id="Group_9">
<path id="Vector_18" d="M53.2961 57.9327H59.3561C59.7241 57.9327 60.0234 57.6341 60.0234 57.2669V48.0161C60.0234 47.649 59.7241 47.3503 59.3561 47.3503H53.2961C52.9281 47.3503 52.6288 47.649 52.6288 48.0161V57.2669C52.6288 57.6341 52.9281 57.9327 53.2961 57.9327ZM59.3561 47.6684C59.5484 47.6684 59.7046 47.8242 59.7046 48.0161V57.2669C59.7046 57.4588 59.5484 57.6146 59.3561 57.6146H53.2961C53.1038 57.6146 52.9476 57.4588 52.9476 57.2669V48.0161C52.9476 47.8242 53.1038 47.6684 53.2961 47.6684H59.3561Z" fill="#26428B"/>
<path id="Vector_19" d="M61.6463 57.9327H67.6035C67.9998 57.9327 68.3223 57.611 68.3223 57.2157V48.0666C68.3223 47.6713 67.9998 47.3496 67.6035 47.3496H61.6463C61.2501 47.3496 60.9276 47.6713 60.9276 48.0666V57.2157C60.9276 57.611 61.2501 57.9327 61.6463 57.9327ZM67.6035 47.6684C67.8241 47.6684 68.0034 47.8473 68.0034 48.0673V57.2164C68.0034 57.4364 67.8241 57.6153 67.6035 57.6153H61.6463C61.4258 57.6153 61.2465 57.4364 61.2465 57.2164V48.0673C61.2465 47.8473 61.4258 47.6684 61.6463 47.6684H67.6035Z" fill="#26428B"/>
<path id="Vector_20" d="M53.1515 69.3375H59.5014C59.7892 69.3375 60.0234 69.1038 60.0234 68.8167V59.2759C60.0234 58.9888 59.7892 58.7551 59.5014 58.7551H53.1515C52.8638 58.7551 52.6295 58.9888 52.6295 59.2759V68.8167C52.6295 69.1038 52.8638 69.3375 53.1515 69.3375ZM59.5014 59.0732C59.6135 59.0732 59.7046 59.1641 59.7046 59.2759V68.8167C59.7046 68.9285 59.6135 69.0194 59.5014 69.0194H53.1515C53.0395 69.0194 52.9484 68.9285 52.9484 68.8167V59.2759C52.9484 59.1641 53.0395 59.0732 53.1515 59.0732H59.5014Z" fill="#26428B"/>
<path id="Vector_21" d="M61.6615 69.3373H67.5898C67.994 69.3373 68.3223 69.0091 68.3223 68.6066V59.4863C68.3223 59.0831 67.9933 58.7556 67.5898 58.7556H61.6615C61.2573 58.7556 60.929 59.0838 60.929 59.4863V68.6066C60.929 69.0098 61.258 69.3373 61.6615 69.3373ZM67.5905 59.073C67.819 59.073 68.0048 59.2584 68.0048 59.4863V68.6066C68.0048 68.8345 67.819 69.0199 67.5905 69.0199H61.6622C61.4337 69.0199 61.2479 68.8345 61.2479 68.6066V59.4863C61.2479 59.2584 61.4337 59.073 61.6622 59.073H67.5905Z" fill="#26428B"/>
</g>
<g id="Group_10">
<path id="Vector_22" d="M38.2507 5.42123L0.865944 25.3251C0.0734787 25.7471 -0.0769196 26.6047 0.542015 27.1745L1.97005 28.9612C2.60489 29.7554 3.71261 29.9934 4.6186 29.5303L38.5233 12.2254C38.7496 12.1092 39.0186 12.1085 39.2456 12.2232L73.9855 29.71C74.4432 29.9408 74.9999 29.8261 75.3304 29.4344L76.8011 27.6867C77.6376 26.6927 77.2935 25.3648 76.0267 24.6954L39.5197 5.41907C39.1227 5.20917 38.6477 5.21061 38.2514 5.42123H38.2507Z" fill="black"/>
<path id="Vector_23" d="M74.4846 29.9883C74.8483 29.9883 75.2041 29.831 75.4514 29.5367L76.9221 27.789C77.3306 27.3028 77.494 26.7179 77.3812 26.1408C77.2547 25.496 76.7883 24.9182 76.0999 24.5546L39.593 5.27831C39.149 5.04388 38.6183 5.0446 38.175 5.28047L0.790268 25.1851C0.347755 25.4202 0.0635986 25.7975 0.0093689 26.2194C-0.0405197 26.6089 0.106987 26.9862 0.424408 27.2826L1.8452 29.06C2.52415 29.9097 3.72153 30.1664 4.69115 29.6716L38.5959 12.3666C38.7766 12.2743 38.9928 12.2736 39.1743 12.3645L73.9142 29.8512C74.0971 29.9436 74.2923 29.9876 74.4854 29.9876L74.4846 29.9883ZM38.8865 5.42113C39.0781 5.42113 39.2697 5.46729 39.444 5.55962L75.951 24.836C76.5533 25.154 76.9611 25.6518 77.0681 26.2021C77.1621 26.6825 77.0233 27.1737 76.6777 27.5849L75.207 29.3326C74.9235 29.6702 74.4499 29.7668 74.0566 29.5685L39.3175 12.0817C39.0456 11.9447 38.721 11.9454 38.4505 12.0846L4.54581 29.3896C3.71069 29.8159 2.67961 29.5944 2.09466 28.8623L0.666626 27.0756C0.661568 27.0691 0.655785 27.0634 0.649994 27.0576C0.40416 26.8311 0.288467 26.5476 0.325348 26.2598C0.366562 25.9417 0.590706 25.6518 0.940666 25.4657L38.3254 5.56106C38.5011 5.46729 38.6942 5.42113 38.8865 5.42113Z" fill="#FCFDFF"/>
</g>
<g id="Group_11">
<g id="Group_12">
<path id="Vector_24" d="M30.7887 47.1353H47.7277C48.2556 47.1353 48.6836 47.5622 48.6836 48.0888V84.9572C48.6836 85.4839 48.2556 85.9108 47.7277 85.9108H30.7887C30.2608 85.9108 29.8329 85.4839 29.8329 84.9572V48.0888C29.8329 47.5622 30.2608 47.1353 30.7887 47.1353Z" fill="#FCFDFF"/>
<path id="Vector_25" d="M30.7898 86.0695H47.7281C48.3434 86.0695 48.8438 85.5703 48.8438 84.9565V48.0888C48.8438 47.475 48.3434 46.9758 47.7281 46.9758H30.7898C30.1745 46.9758 29.6741 47.475 29.6741 48.0888V84.9565C29.6741 85.5703 30.1745 86.0695 30.7898 86.0695ZM47.7281 47.2939C48.1677 47.2939 48.5249 47.6503 48.5249 48.0888V84.9565C48.5249 85.395 48.1677 85.7514 47.7281 85.7514H30.7898C30.3502 85.7514 29.993 85.395 29.993 84.9565V48.0888C29.993 47.6503 30.3502 47.2939 30.7898 47.2939H47.7281Z" fill="black"/>
</g>
<path id="Vector_26" d="M31.3356 84.4834L46.916 84.5411C47.3209 84.5411 47.6484 84.2136 47.6484 83.8104V48.9472C47.6484 48.5433 47.3202 48.2166 46.916 48.2166L31.0681 48.236C30.7789 48.236 30.5468 48.4733 30.5525 48.7619L31.3349 84.4841L31.3356 84.4834Z" fill="black"/>
<g id="Group_13">
<path id="Vector_27" d="M27.4642 82.4592H50.9707C51.2199 82.4592 51.4219 82.6608 51.4219 82.9093V85.3899C51.4219 85.6385 51.2199 85.84 50.9707 85.84H27.4642C27.215 85.84 27.013 85.6385 27.013 85.3899V82.9093C27.013 82.6608 27.215 82.4592 27.4642 82.4592Z" fill="#FCFDFF"/>
<path id="Vector_28" d="M27.4646 85.9987H50.971C51.308 85.9987 51.582 85.7253 51.582 85.3899V82.9093C51.582 82.5732 51.308 82.3005 50.971 82.3005H27.4646C27.1276 82.3005 26.8543 82.5739 26.8543 82.9093V85.3899C26.8543 85.726 27.1283 85.9987 27.4646 85.9987ZM50.971 82.6179C51.1323 82.6179 51.2632 82.7485 51.2632 82.9093V85.3899C51.2632 85.5508 51.1323 85.6813 50.971 85.6813H27.4646C27.3033 85.6813 27.1724 85.5508 27.1724 85.3899V82.9093C27.1724 82.7485 27.3033 82.6179 27.4646 82.6179H50.971Z" fill="black"/>
</g>
<g id="Group_14">
<path id="Vector_29" d="M42.543 80.7766C42.8062 80.7362 43.0007 80.5111 43.0028 80.2457L43.1836 50.5551C43.1836 50.4469 43.1055 50.3552 42.9985 50.3372L30.883 48.2937C30.7051 48.2634 30.5432 48.4012 30.5439 48.5808L30.6646 82.595L42.5437 80.7766H42.543Z" fill="#26428B"/>
<path id="Vector_30" d="M30.665 82.7544C30.673 82.7544 30.6809 82.7544 30.6889 82.7523L42.5679 80.9339C42.9106 80.8812 43.1608 80.5927 43.163 80.2464L43.3438 50.5558C43.3438 50.3683 43.21 50.211 43.0256 50.18L30.9101 48.1365C30.7792 48.1142 30.6455 48.151 30.5435 48.2368C30.4423 48.3226 30.3837 48.4481 30.3845 48.5809L30.5052 82.595C30.5052 82.6412 30.5255 82.6852 30.5609 82.7155C30.5898 82.74 30.6267 82.7537 30.6643 82.7537L30.665 82.7544ZM30.8342 48.4481C30.8414 48.4481 30.8494 48.4481 30.8573 48.4503L42.9728 50.4938C43.0032 50.4988 43.0249 50.5248 43.0249 50.5551L42.8441 80.2443C42.8427 80.4325 42.7067 80.5905 42.5195 80.6194L30.8233 82.4097L30.7033 48.5794C30.7033 48.526 30.7322 48.4936 30.7496 48.4792C30.7641 48.4669 30.793 48.4481 30.8335 48.4481H30.8342Z" fill="black"/>
</g>
</g>
<path id="Vector_31" d="M10.3838 42.1995H68.8644C68.9526 42.1995 69.0234 42.128 69.0234 42.0408C69.0234 41.9535 68.9519 41.8821 68.8644 41.8821H10.3838C10.2956 41.8821 10.2247 41.9535 10.2247 42.0408C10.2247 42.128 10.2963 42.1995 10.3838 42.1995Z" fill="#26428B"/>
</g>
</g>
<path id="Vector_32" d="M110.801 96.4428C110.856 96.4428 110.911 96.4132 110.94 96.3613C110.984 96.2848 110.956 96.1875 110.879 96.1449L106.082 93.4631C106.006 93.4205 105.908 93.4472 105.865 93.5244C105.823 93.6016 105.849 93.6975 105.927 93.7408L110.723 96.4226C110.748 96.4363 110.775 96.4428 110.801 96.4428Z" fill="black"/>
<g id="Group_15">
<g id="Group_16">
<path id="Vector_33" d="M89.6874 71.5468C88.1003 75.7247 86.5147 89.0076 92.6223 97.2436C98.7227 105.469 113.382 109.854 123.09 103.382C134.799 95.5766 133.115 76.107 125.985 67.9742C121.993 63.4191 118.185 64.5775 112.675 58.0439C107.18 51.5276 108.257 47.1593 103.449 44.5265C97.6663 41.3607 89.2254 43.8564 87.7279 47.2798C86.3881 50.3417 90.6664 52.8367 91.4842 59.9936C91.6375 61.3367 91.623 62.4388 91.5095 63.4119C91.0077 67.7044 89.9745 70.7923 89.6881 71.5461L89.6874 71.5468Z" fill="black"/>
<path id="Vector_34" d="M106.086 41.2798C105.183 42.6092 104.462 46.9032 106.465 48.2578C108.469 49.6124 112.438 47.5148 113.341 46.1855C114.244 44.8561 113.352 42.6799 111.349 41.3253C109.345 39.9706 106.989 39.9505 106.086 41.2798Z" fill="black"/>
</g>
<g id="Group_17">
<path id="Vector_35" d="M111.145 85.761C111.145 85.761 115.481 74.8901 112.927 72.5956C112.793 72.4759 111.067 72.2999 109.3 73.9127C107.632 75.4354 105.912 78.7491 105.912 78.7491L105.345 86.2536L111.145 85.7602V85.761Z" fill="#FCFDFF"/>
<path id="Vector_36" d="M105.346 86.4131C105.35 86.4131 105.354 86.4131 105.36 86.4131L111.159 85.9197C111.219 85.9147 111.271 85.8757 111.294 85.8202C111.472 85.3723 115.641 74.8195 113.033 72.4781C112.794 72.2632 110.978 72.1658 109.192 73.7959C107.522 75.3201 105.842 78.5407 105.771 78.6771C105.761 78.6958 105.755 78.7167 105.754 78.7384L105.187 86.2429C105.183 86.2891 105.2 86.3352 105.234 86.3677C105.263 86.3973 105.304 86.4138 105.346 86.4138V86.4131ZM111.033 85.611L105.519 86.0799L106.069 78.7939C106.241 78.4679 107.861 75.442 109.407 74.0296C111.073 72.5084 112.644 72.6447 112.829 72.7219C115.133 74.826 111.441 84.5594 111.033 85.6103V85.611Z" fill="black"/>
</g>
<g id="Group_18">
<path id="Vector_37" d="M78.166 66.028C78.166 66.028 76.4762 66.3915 75.148 68.4379C72.4972 72.5205 68.4011 79.9464 61.8467 81.0558C52.0073 82.7213 46.0465 70.7792 46.8925 68.1039C46.8925 68.1039 48.3053 66.2314 50.627 65.6666C50.627 65.6666 50.6516 63.8006 48.6329 64.6842C46.6148 65.5678 45.8064 65.0282 44.9041 64.8169C43.3177 64.4454 39.9475 60.6448 38.6916 60.1615C37.4356 59.6783 37.8283 60.7227 37.8283 60.7227C37.8283 60.7227 36.5976 59.3414 35.7502 60.0339L37.5578 62.4171C37.5578 62.4171 36.0958 60.4897 35.2484 61.4577L39.0307 65.8729L36.2585 63.7017C36.2585 63.7017 35.8731 64.1259 36.5976 64.8767C37.3221 65.6284 40.2693 69.7276 43.0914 69.7276C43.0914 69.7276 41.5715 92.3428 58.5459 93.2611C73.1299 94.0502 79.0684 82.3137 79.0684 82.3137L78.166 66.028Z" fill="#FCFDFF"/>
<path id="Vector_38" d="M59.9211 93.4573C66.7627 93.4573 71.529 90.6485 74.3808 88.204C77.6743 85.3808 79.1963 82.4155 79.2115 82.3852C79.2238 82.3606 79.2303 82.3325 79.2281 82.3051L78.3257 66.0193C78.3228 65.9732 78.3004 65.9299 78.2636 65.9018C78.2267 65.8736 78.179 65.8628 78.1334 65.8729C78.0618 65.888 76.3641 66.2739 75.0149 68.3513C74.7647 68.7365 74.5015 69.152 74.2246 69.5891C71.6209 73.6977 67.6867 79.906 61.8206 80.8993C56.3984 81.8168 52.5301 78.4518 50.7065 76.3644C47.8801 73.1278 46.6726 69.4369 47.0363 68.1789C47.2004 67.9726 48.5598 66.3338 50.6646 65.8217C50.7354 65.8044 50.7853 65.7416 50.7861 65.6695C50.7861 65.6356 50.7904 64.8393 50.2286 64.4678C49.8323 64.2059 49.2742 64.2305 48.5692 64.5392C46.9409 65.2526 46.1571 65.0174 45.3993 64.7902C45.2431 64.7433 45.0963 64.6993 44.9409 64.6633C44.0891 64.4642 42.6286 63.1673 41.3394 62.0233C40.2591 61.0646 39.3264 60.2366 38.7494 60.0144C38.2678 59.829 37.9425 59.8297 37.7545 60.0158C37.6728 60.0966 37.6337 60.1983 37.6185 60.3008C37.163 59.9091 36.3235 59.3616 35.6497 59.912C35.5831 59.9661 35.5716 60.0627 35.6236 60.1305L36.4371 61.2024C36.2454 61.1021 36.0466 61.0343 35.8507 61.0278C35.5687 61.0185 35.3265 61.1281 35.1291 61.3539C35.077 61.413 35.0763 61.5017 35.1283 61.5616L37.8687 64.7599L36.359 63.577C36.2932 63.5257 36.1985 63.5337 36.1428 63.595C36.1233 63.6166 35.667 64.1381 36.4848 64.9871C36.5918 65.0975 36.7523 65.2879 36.9548 65.5296C38.1196 66.9116 40.5151 69.7543 42.9257 69.8827C42.8607 71.3556 42.5845 82.2791 48.2735 88.6865C50.8591 91.5992 54.3131 93.1918 58.5394 93.4205C59.0093 93.4458 59.4707 93.458 59.9226 93.458L59.9211 93.4573ZM78.9078 82.2791C78.7234 82.6261 77.2151 85.3584 74.1631 87.9717C71.1689 90.536 66.0302 93.5071 58.5553 93.1024C54.4172 92.8788 51.0377 91.3215 48.5106 88.4752C42.5201 81.7273 43.2432 69.8574 43.2511 69.7384C43.254 69.6944 43.2388 69.6511 43.2085 69.6194C43.1781 69.5877 43.1362 69.5689 43.092 69.5689C40.7739 69.5689 38.3589 66.7024 37.1977 65.3247C36.9909 65.0787 36.8268 64.8847 36.7133 64.7664C36.3387 64.3776 36.2975 64.1057 36.3221 63.952L38.933 65.997C38.9974 66.0475 39.0899 66.041 39.1463 65.9818C39.2027 65.9227 39.2056 65.8303 39.1529 65.7683L35.4674 61.4664C35.5773 61.3791 35.7003 61.3395 35.8398 61.3438C36.4334 61.364 37.1905 62.1935 37.432 62.5116C37.4855 62.5808 37.5845 62.5945 37.6547 62.5419C37.7096 62.5008 37.7299 62.4308 37.7111 62.3688C37.706 62.3515 37.6973 62.3349 37.6858 62.319L35.9801 60.0707C36.6988 59.7057 37.6988 60.8143 37.7096 60.8266C37.7602 60.8836 37.8456 60.8966 37.9106 60.8569C37.9764 60.8172 38.0046 60.7364 37.9779 60.665C37.9417 60.5676 37.8918 60.3238 37.9786 60.238C38.0097 60.207 38.15 60.1212 38.6344 60.308C39.1579 60.5092 40.1145 61.3589 41.1275 62.2577C42.5085 63.4839 43.9373 64.752 44.8679 64.9698C45.0132 65.0037 45.1556 65.0463 45.3068 65.0917C46.0819 65.324 46.9604 65.588 48.6964 64.827C49.2958 64.5644 49.7528 64.532 50.0522 64.7296C50.3609 64.9338 50.4397 65.3398 50.46 65.5418C48.1867 66.1477 46.8223 67.9286 46.7644 68.0051C46.7536 68.0195 46.7449 68.0354 46.7398 68.0527C46.2735 69.5292 47.6885 73.3897 50.465 76.5692C52.115 78.4583 55.4035 81.3688 59.9934 81.3688C60.5979 81.3688 61.2241 81.3183 61.8726 81.2087C67.8791 80.1924 71.8587 73.9112 74.4921 69.755C74.7683 69.3193 75.0308 68.9046 75.2802 68.5201C76.3026 66.9455 77.555 66.3922 78.0163 66.2343L78.9056 82.2755L78.9078 82.2791Z" fill="black"/>
</g>
<path id="Vector_39" d="M41.0011 64.1058C41.0416 64.1058 41.0813 64.0907 41.1124 64.0604C41.1753 63.9991 41.1761 63.8981 41.1146 63.8353L37.9433 60.6104C37.8818 60.5476 37.7806 60.5469 37.7177 60.6082C37.6548 60.6695 37.6541 60.7705 37.7155 60.8332L40.8868 64.0582C40.9179 64.09 40.9591 64.1058 41.0004 64.1058H41.0011Z" fill="black"/>
<path id="Vector_40" d="M39.7101 64.7586C39.7505 64.7586 39.791 64.7434 39.8214 64.7131C39.8843 64.6518 39.885 64.5509 39.8236 64.4881L37.6725 62.3047C37.611 62.2419 37.5098 62.2412 37.4469 62.3025C37.384 62.3638 37.3833 62.4648 37.4447 62.5276L39.5958 64.711C39.6269 64.7427 39.6681 64.7586 39.7093 64.7586H39.7101Z" fill="black"/>
<path id="Vector_41" d="M45.3679 68.2698C45.3895 68.2698 45.412 68.2655 45.4337 68.2554C45.5139 68.2193 45.5493 68.1248 45.5132 68.0448C45.4741 67.9575 44.5306 65.9169 42.9919 66.2314C41.621 66.512 40.6506 66.16 40.6412 66.1564C40.5595 66.1254 40.467 66.1679 40.4366 66.2502C40.4055 66.3324 40.4475 66.424 40.5306 66.4543C40.5733 66.4702 41.5978 66.8416 43.0562 66.543C44.3483 66.279 45.2146 68.1566 45.2232 68.1753C45.25 68.2338 45.3078 68.2691 45.3686 68.2691L45.3679 68.2698Z" fill="black"/>
<g id="Group_19">
<path id="Vector_42" d="M112.925 72.5954C112.925 72.5954 83.0571 64.244 77.0211 65.2481L74.9098 79.287L70.9156 90.0266C69.7674 93.1138 70.4167 96.5963 72.6444 99.0271C75.1339 101.743 79.272 104.614 85.7541 104.905C98.3396 105.471 104.462 108.565 105.129 103.017C105.796 97.4683 106.59 84.1602 106.59 84.1602C108.602 78.8657 111.05 72.7483 112.926 72.5961L112.925 72.5954Z" fill="#FCFDFF"/>
<path id="Vector_43" d="M100.741 106.432C102.187 106.432 103.284 106.217 104.049 105.619C104.738 105.08 105.143 104.235 105.288 103.036C105.935 97.6574 106.709 84.8376 106.748 84.1934C108.252 80.2363 111.04 72.9085 112.939 72.7542C113.016 72.7477 113.077 72.6878 113.085 72.6106C113.092 72.5342 113.044 72.4635 112.97 72.4426C111.748 72.1014 82.9982 64.0919 76.9962 65.0917C76.9282 65.1032 76.8747 65.1566 76.8646 65.2251L74.7554 79.2474L70.7671 89.9719C69.5856 93.1492 70.2602 96.6606 72.5277 99.1347C74.8545 101.673 79.0366 104.762 85.748 105.065C89.4421 105.23 92.6264 105.621 95.1853 105.934C97.4138 106.207 99.2597 106.434 100.741 106.434V106.432ZM112.382 72.6092C110.557 73.6183 108.453 78.8089 106.442 84.1026C106.436 84.1177 106.432 84.1336 106.432 84.1494C106.424 84.2822 105.631 97.5168 104.972 102.997C104.837 104.123 104.481 104.877 103.853 105.368C102.408 106.497 99.5504 106.147 95.2243 105.617C92.6597 105.303 89.4688 104.912 85.7625 104.746C79.1603 104.449 75.049 101.413 72.7634 98.919C70.5769 96.5329 69.9261 93.1464 71.0664 90.0815L75.0605 79.3419C75.0642 79.3318 75.0671 79.321 75.0685 79.3102L77.1625 65.3874C82.8999 64.5831 108.463 71.5308 112.382 72.6099V72.6092Z" fill="black"/>
</g>
<g id="Group_20">
<g id="Group_21">
<path id="Vector_44" d="M92.6722 63.0366C91.5941 63.209 90.5493 63.0316 90.0186 62.5555C89.3649 61.9684 89.4199 61.1259 89.3454 60.0858C89.3143 59.6508 89.3114 59.1517 88.9846 58.6395C88.8118 58.3683 88.5927 58.1642 88.3736 58.0098C88.1039 57.8208 88.0229 57.4573 88.1777 57.1673L88.2999 57.0014C89.2586 55.6973 89.7077 53.374 89.5529 50.9554L90.2232 49.7205C92.0822 49.4471 93.5623 49.5359 93.73 49.8597C93.7922 49.9787 93.9021 50.074 93.7835 50.5507C93.2094 52.8524 95.346 53.1049 97.1877 53.0898C99.0293 53.0746 97.6569 56.151 97.6569 56.151C97.6569 56.151 99.0669 55.0128 99.9823 56.5044C100.638 57.5734 98.6273 58.5984 97.4349 59.0932C97.4349 59.0932 97.4205 66.5732 98.9389 67.5723L103.154 70.249C103.154 70.249 93.9296 72.4916 87.5754 67.1149C87.5754 67.1149 90.4003 67.265 91.6426 66.3056C92.8855 65.347 92.5456 63.279 92.6722 63.0359V63.0366Z" fill="#FCFDFF"/>
<path id="Vector_45" d="M98.5988 70.8586C101.253 70.8586 103.151 70.4129 103.193 70.4028C103.255 70.3876 103.302 70.3371 103.312 70.2744C103.323 70.2116 103.294 70.1489 103.241 70.1142L99.0254 67.4374C97.8606 66.6714 97.6003 61.3308 97.5952 59.1979C98.6697 58.7428 99.9582 58.0445 100.221 57.2345C100.312 56.9539 100.278 56.6798 100.119 56.4201C99.8287 55.9477 99.46 55.6707 99.0233 55.5957C98.6241 55.5272 98.2481 55.6426 97.977 55.771C98.2019 55.1362 98.5178 53.9799 98.1086 53.3567C97.9199 53.0696 97.6075 52.9297 97.1874 52.929C96.0616 52.9384 94.6979 52.8561 94.1267 52.1334C93.8339 51.7626 93.7724 51.257 93.9395 50.5876C94.0501 50.1433 93.9807 49.9716 93.8932 49.8216C93.886 49.8093 93.8787 49.7978 93.8729 49.7855C93.6199 49.2986 91.792 49.3289 90.2013 49.5626C90.1514 49.5698 90.108 49.6001 90.0841 49.6441L89.4139 50.879C89.3994 50.905 89.3929 50.9353 89.3951 50.9649C89.5505 53.3928 89.082 55.67 88.1724 56.9063L88.0502 57.0722C88.0459 57.0787 88.0415 57.0852 88.0379 57.0917C87.8441 57.4545 87.9497 57.9053 88.283 58.139C88.518 58.3042 88.7096 58.5011 88.8521 58.724C89.1268 59.1553 89.1543 59.573 89.1803 59.9762L89.1883 60.0959C89.1984 60.2409 89.2064 60.3823 89.2143 60.5201C89.262 61.3806 89.3032 62.1243 89.9142 62.6725C90.4413 63.1464 91.4131 63.3512 92.484 63.2228C92.4803 63.2921 92.4782 63.3765 92.476 63.4803C92.4608 64.1851 92.4319 65.4964 91.5469 66.1795C90.3647 67.0919 87.6127 66.9571 87.5853 66.9556C87.5173 66.9513 87.4537 66.9924 87.4284 67.0559C87.4031 67.1193 87.4211 67.1915 87.4732 67.2355C90.9648 70.19 95.348 70.8579 98.5988 70.8579V70.8586ZM102.738 70.1727C100.983 70.5059 93.5035 71.5951 88.0336 67.2831C88.9034 67.2816 90.7638 67.185 91.7407 66.4312C92.7457 65.6558 92.7768 64.2456 92.7934 63.4875C92.797 63.3281 92.8007 63.1478 92.8166 63.1045C92.844 63.0512 92.8383 62.9891 92.8035 62.9408C92.7681 62.8925 92.7074 62.8701 92.6481 62.8795C91.6018 63.0468 90.612 62.873 90.1268 62.4366C89.6134 61.9757 89.578 61.3258 89.5325 60.5028C89.5245 60.3635 89.5165 60.2207 89.5064 60.0736L89.4985 59.956C89.471 59.5333 89.4399 59.0536 89.121 58.5538C88.9562 58.2955 88.7364 58.0683 88.4667 57.8793C88.2678 57.7394 88.2035 57.4711 88.3148 57.2504L88.4298 57.0946C89.39 55.7883 89.8701 53.5089 89.7161 50.9901L90.3264 49.8656C92.296 49.5857 93.4962 49.7574 93.5902 49.9319C93.5989 49.9485 93.6083 49.9651 93.6184 49.9817C93.6683 50.0668 93.7197 50.1548 93.6307 50.5112C93.4413 51.2721 93.5237 51.8838 93.8766 52.331C94.5331 53.162 95.9908 53.2572 97.1903 53.2478C97.5012 53.2478 97.7153 53.338 97.8418 53.5313C98.2373 54.1329 97.7377 55.5791 97.5121 56.0854C97.4824 56.1525 97.502 56.2312 97.5605 56.2759C97.6191 56.3206 97.7001 56.3199 97.7579 56.2737C97.7637 56.2694 98.3544 55.8027 98.9712 55.9094C99.3132 55.9686 99.6082 56.1965 99.8475 56.5868C99.9574 56.7656 99.9806 56.946 99.9184 57.1371C99.7362 57.6983 98.8324 58.341 97.3747 58.9462C97.3154 58.9707 97.2771 59.0284 97.2764 59.0926C97.2764 59.4013 97.2793 66.6707 98.8519 67.7051L102.738 70.1734V70.1727Z" fill="black"/>
</g>
<path id="Vector_46" d="M92.6744 63.1955C92.6802 63.1955 92.6853 63.1955 92.6911 63.1947C94.7785 62.9827 96.2044 60.5165 96.2644 60.4119C96.3078 60.3355 96.281 60.2388 96.2044 60.1955C96.1277 60.1522 96.0308 60.1789 95.9875 60.2554C95.9737 60.2799 94.5826 62.684 92.6592 62.8795C92.5717 62.8882 92.5081 62.9661 92.5168 63.0534C92.5255 63.1356 92.5942 63.1962 92.6751 63.1962L92.6744 63.1955Z" fill="black"/>
</g>
<path id="Vector_47" d="M74.8237 98.7576C75.1006 98.0896 75.7521 97.6489 76.4766 97.6489C83.2422 97.6504 90.112 99.3375 97.0909 102.805C97.6874 103.101 98.1791 103.571 98.5016 104.153C99.7806 106.46 103.195 112.877 104.941 118.68C105.564 120.75 106.232 123.426 106.771 125.707C108.703 133.888 105.495 133.678 105.066 133.888C97.4271 137.632 80.4764 133.678 80.4764 133.678H80.0246C74.8237 135.071 64.6171 133.678 64.6171 133.678C66.959 121.527 73.0956 102.919 74.8237 98.7576Z" fill="#26428B"/>
<g id="Group_22">
<g id="Group_23">
<path id="Vector_48" d="M63.7654 102.96H86.149C86.8439 102.96 87.3739 102.33 87.2625 101.635L82.4484 71.5741C82.3602 71.0216 81.8881 70.6147 81.3349 70.6147H58.9513C58.2565 70.6147 57.7265 71.2445 57.8378 71.9391L62.6519 102C62.7401 102.553 63.2123 102.96 63.7654 102.96Z" fill="black"/>
<g id="Group_24">
<path id="Vector_49" d="M64.4783 102.882H86.8619C87.5568 102.882 88.0868 102.253 87.9754 101.56L83.1613 71.5504C83.0731 70.9986 82.6009 70.5933 82.0478 70.5933H59.6642C58.9694 70.5933 58.4394 71.2222 58.5507 71.9154L63.3648 101.925C63.453 102.477 63.9252 102.882 64.4783 102.882Z" fill="#FCFDFF"/>
<path id="Vector_50" d="M64.4776 103.041H86.8612C87.2357 103.041 87.5915 102.877 87.8359 102.591C88.0846 102.299 88.193 101.915 88.1316 101.535L83.3175 71.5252C83.2163 70.8926 82.6819 70.4338 82.0464 70.4338H59.6628C59.2882 70.4338 58.9325 70.5983 58.6881 70.8847C58.4394 71.1761 58.3316 71.5605 58.3924 71.9407L63.2065 101.95C63.3077 102.583 63.842 103.041 64.4776 103.041ZM82.0478 70.7519C82.525 70.7519 82.9278 71.0982 83.0037 71.5757L87.8178 101.585C87.8641 101.873 87.7823 102.164 87.5936 102.384C87.4093 102.6 87.1424 102.723 86.8612 102.723H64.4776C64.0004 102.723 63.5976 102.377 63.521 101.9L58.7069 71.8902C58.6606 71.6024 58.7423 71.311 58.9303 71.091C59.1147 70.8753 59.3815 70.7519 59.6628 70.7519H82.0464H82.0478Z" fill="black"/>
</g>
<path id="Vector_51" d="M64.4771 103.041H86.8607C87.236 103.041 87.5917 102.877 87.8361 102.591C88.0849 102.3 88.1926 101.915 88.1319 101.537L83.3178 71.564C83.2165 70.9322 82.6822 70.4741 82.0466 70.4741H59.663C59.2878 70.4741 58.932 70.6386 58.6876 70.9249C58.4389 71.2156 58.3312 71.6001 58.3926 71.9788L63.2067 101.951C63.308 102.583 63.8423 103.041 64.4779 103.041H64.4771ZM82.0474 70.7908C82.5246 70.7908 82.9273 71.137 83.0032 71.6131L87.8173 101.586C87.8636 101.873 87.7819 102.163 87.5939 102.383C87.4095 102.599 87.1427 102.723 86.8607 102.723H64.4771C63.9999 102.723 63.5972 102.376 63.5205 101.9L58.7064 71.9276C58.6602 71.6405 58.7419 71.3498 58.9299 71.1298C59.1143 70.9141 59.3811 70.7908 59.663 70.7908H82.0466H82.0474Z" fill="black"/>
</g>
<g id="Group_25">
<g id="Group_26">
<path id="Vector_52" d="M68.1361 73.3805H74.6248C75.6616 73.3805 76.4497 72.4392 76.2769 71.4077L76.1251 70.5032C76.1099 70.4116 76.0311 70.3445 75.9385 70.3445H65.9445C65.8274 70.3445 65.7384 70.4505 65.7579 70.5674L65.9112 71.4842C66.0949 72.5798 67.0349 73.3812 68.1361 73.3812V73.3805Z" fill="#FCFDFF"/>
<path id="Vector_53" d="M68.1372 73.5392H74.6259C75.1624 73.5392 75.6707 73.3033 76.0199 72.8921C76.375 72.4745 76.5261 71.9234 76.435 71.381L76.2831 70.4765C76.2549 70.3077 76.1103 70.1851 75.9397 70.1851H65.9456C65.8437 70.1851 65.7468 70.2298 65.6803 70.3077C65.613 70.3863 65.5848 70.4902 65.6015 70.5926L65.7547 71.5094C65.9521 72.6858 66.9536 73.5392 68.1365 73.5392H68.1372ZM75.9397 70.5024C75.9541 70.5024 75.9664 70.5133 75.9686 70.5284L76.1204 71.4329C76.1956 71.883 76.0706 72.3396 75.7763 72.6858C75.4878 73.0256 75.0684 73.2203 74.6252 73.2203H68.1365C67.1097 73.2203 66.2406 72.4781 66.0693 71.456L65.916 70.5392C65.9138 70.5262 65.9189 70.5176 65.9232 70.5125C65.9276 70.5075 65.9341 70.5024 65.9449 70.5024H75.939H75.9397Z" fill="black"/>
</g>
<g id="Group_27">
<path id="Vector_54" d="M72.5041 72.3237H69.7334C69.6285 72.3237 69.5389 72.2551 69.5215 72.1498L69.1419 69.7046C68.9894 68.7315 69.7319 67.8501 70.7044 67.8501C71.4824 67.8501 72.1448 68.4207 72.267 69.1989L72.716 72.0806C72.7369 72.2126 72.6364 72.3237 72.5041 72.3237ZM71.3704 69.3562L71.3675 69.3382C71.3154 69.023 71.0457 68.7921 70.7297 68.7921C70.3299 68.7921 70.0262 69.1564 70.092 69.5553L70.0949 69.5733C70.147 69.8885 70.4167 70.1193 70.7326 70.1193C71.1325 70.1193 71.4362 69.7551 71.3704 69.3562Z" fill="#FCFDFF"/>
<path id="Vector_55" d="M69.7346 72.4823H72.5054C72.6167 72.4823 72.7216 72.4347 72.7917 72.3518C72.8611 72.2703 72.8915 72.1628 72.8741 72.0553L72.4251 69.1744C72.2906 68.3146 71.5668 67.6907 70.705 67.6907C70.2003 67.6907 69.7216 67.9121 69.3904 68.2973C69.0521 68.6919 68.9046 69.2134 68.9848 69.7291L69.3644 72.1736C69.3933 72.3525 69.5481 72.4823 69.7332 72.4823H69.7346ZM70.7057 68.0088C71.4092 68.0088 71.9999 68.5195 72.1106 69.2235L72.5596 72.1051C72.5625 72.1217 72.5596 72.1354 72.5495 72.1462C72.5437 72.1534 72.5299 72.165 72.5054 72.165H69.7346C69.7267 72.165 69.6869 72.1628 69.6804 72.1253L69.3008 69.6808C69.2343 69.2574 69.3557 68.8282 69.6334 68.505C69.9038 68.1898 70.2943 68.0095 70.7057 68.0095V68.0088ZM70.7339 70.2787C70.9689 70.2787 71.1916 70.1756 71.3449 69.9953C71.501 69.8113 71.5676 69.5697 71.5285 69.3309L71.5256 69.3129C71.4605 68.9191 71.1265 68.6334 70.731 68.6334C70.496 68.6334 70.2733 68.7366 70.12 68.9169C69.9638 69.1008 69.8973 69.3425 69.9364 69.5812L69.9392 69.5993C70.0043 69.9931 70.3384 70.2787 70.7339 70.2787ZM70.731 68.9508C70.9696 68.9508 71.1713 69.1246 71.2111 69.3641L71.214 69.3821C71.2386 69.5286 71.1974 69.6772 71.1019 69.7897C71.0094 69.8986 70.8756 69.9606 70.7339 69.9606C70.4953 69.9606 70.2935 69.7868 70.2538 69.5473L70.2509 69.5293C70.2263 69.3829 70.2675 69.2343 70.363 69.1218C70.4555 69.0128 70.59 68.9508 70.731 68.9508Z" fill="black"/>
</g>
</g>
</g>
<g id="Group_28">
<g id="Group_29">
<path id="Vector_56" d="M78.4782 86.2888C79.8122 85.292 84.1686 82.3909 85.7101 83.2954C86.7354 83.897 87.7463 84.8282 88.5662 87.4667L106.005 93.6022L105.956 88.3085C105.933 85.7796 106.504 83.2802 107.622 81.011L110.879 74.4023C112.912 75.7411 114.503 77.6627 115.387 79.9276C118.97 89.0998 117.959 105.613 114.515 106.479C105.262 108.807 87.3724 90.29 87.3724 90.29C87.3724 90.29 82.5048 90.2669 81.5511 90.1709C77.5989 89.7742 77.5852 86.9575 78.4789 86.2896L78.4782 86.2888Z" fill="#FCFDFF"/>
<path id="Vector_57" d="M112.766 106.843C113.4 106.843 113.996 106.773 114.553 106.633C115.112 106.493 115.618 105.989 116.06 105.135C118.384 100.639 118.547 87.58 115.535 79.8699C114.644 77.5877 113.064 75.651 110.966 74.2697C110.928 74.2444 110.881 74.2372 110.837 74.2488C110.793 74.261 110.756 74.2913 110.736 74.3317L107.479 80.9404C106.355 83.2204 105.774 85.7688 105.797 88.31L105.843 93.3765L88.694 87.3427C87.8488 84.6674 86.7996 83.7499 85.7902 83.1577C83.9139 82.0562 78.6074 85.9931 78.3825 86.1612C77.9104 86.5147 77.7166 87.3059 77.922 88.0431C78.0875 88.6375 78.7715 90.0505 81.5343 90.3282C82.4353 90.4184 86.6919 90.4444 87.3036 90.448C87.7981 90.9543 92.1076 95.3226 97.375 99.3829C103.809 104.342 108.974 106.843 112.765 106.843L112.766 106.843ZM110.94 74.6354C112.908 75.9727 114.391 77.8192 115.237 79.9846C116.62 83.5234 117.433 88.5516 117.471 93.7811C117.506 98.6053 116.856 102.899 115.776 104.988C115.378 105.758 114.94 106.207 114.475 106.325C105.417 108.603 87.6637 90.3636 87.4851 90.1796C87.4554 90.1486 87.4142 90.1313 87.3708 90.1313C87.3224 90.1313 82.4996 90.1068 81.5647 90.013C78.9971 89.7555 78.3753 88.491 78.2271 87.9594C78.0348 87.2691 78.2611 86.6495 78.572 86.4173C80.0571 85.3072 84.2205 82.6073 85.6275 83.4332C86.5906 83.9987 87.595 84.8838 88.412 87.5144C88.4272 87.5627 88.4634 87.6002 88.5111 87.6168L105.95 93.7523C105.999 93.7696 106.053 93.7617 106.095 93.7314C106.137 93.7011 106.162 93.6528 106.162 93.6008L106.113 88.3071C106.09 85.8157 106.66 83.3171 107.762 81.081L110.939 74.6354H110.94Z" fill="black"/>
</g>
<path id="Vector_58" d="M77.9989 87.6197C78.0163 87.6197 78.0336 87.6168 78.0503 87.611L84.1268 85.5322C84.21 85.5041 84.2541 85.4132 84.2259 85.3302C84.1977 85.2473 84.1073 85.2026 84.0234 85.2314L77.9469 87.3102C77.8637 87.3384 77.8196 87.4293 77.8478 87.5122C77.8702 87.5779 77.9324 87.6197 77.9982 87.6197H77.9989Z" fill="black"/>
<path id="Vector_59" d="M78.3433 88.7564C78.3584 88.7564 78.3736 88.7542 78.3888 88.7499L84.3178 86.9913C84.4024 86.9661 84.4502 86.8781 84.4249 86.7937C84.3996 86.7093 84.3113 86.6617 84.2267 86.6869L78.2977 88.4455C78.2131 88.4707 78.1654 88.5587 78.1907 88.6431C78.2109 88.7124 78.2746 88.7571 78.3433 88.7571V88.7564Z" fill="black"/>
<path id="Vector_60" d="M79.4728 89.7606C79.4873 89.7606 79.501 89.7584 79.5155 89.7548C81.454 89.2167 84.4142 88.4081 84.6238 88.3872C84.7121 88.3872 84.7793 88.3165 84.7793 88.2285C84.7793 88.1405 84.7041 88.0698 84.6159 88.0698C84.4134 88.0698 80.595 89.1251 79.4301 89.449C79.3455 89.4728 79.2957 89.5601 79.3195 89.6445C79.339 89.7144 79.4034 89.7606 79.4728 89.7606Z" fill="black"/>
</g>
</g>
<g id="Group_30">
<path id="Vector_61" d="M81.2664 10.8973C81.2968 10.8973 81.3271 10.8887 81.3539 10.8714C81.4276 10.823 81.4479 10.7242 81.3994 10.6514C79.5651 7.87863 79.0372 4.55267 79.7364 0.184405C79.7502 0.097848 79.6909 0.0163398 79.6041 0.00263492C79.5173 -0.0117913 79.4356 0.0480775 79.4219 0.134635C78.709 4.58585 79.2527 7.98323 81.1334 10.8266C81.1637 10.8728 81.2151 10.898 81.2664 10.898V10.8973Z" fill="black"/>
<path id="Vector_62" d="M94.3994 19.8105C94.4637 19.8105 94.5245 19.7708 94.5483 19.7073C94.5794 19.6251 94.5375 19.5335 94.4551 19.5025C93.7862 19.2522 93.1384 18.9831 92.5288 18.704C86.7704 16.0654 83.3381 13.582 81.3989 10.6498C81.3504 10.5763 81.2514 10.5561 81.1783 10.6044C81.1046 10.6527 81.0843 10.7515 81.1328 10.8244C83.1067 13.8085 86.5803 16.328 92.3958 18.9918C93.0118 19.2738 93.6669 19.5458 94.3423 19.799C94.3611 19.8062 94.3799 19.8091 94.3987 19.8091L94.3994 19.8105Z" fill="#FCFDFF"/>
<path id="Vector_63" d="M131.437 36.9159C131.503 36.9159 131.564 36.8747 131.588 36.8098C131.613 36.7377 132.207 35.0152 131.924 32.8181C131.663 30.7869 130.566 27.9673 126.825 26.0724C123.492 24.3838 118.081 23.7325 112.353 23.0422C106.509 22.3382 99.8853 21.5404 94.4552 19.5034C94.3728 19.4724 94.2809 19.5142 94.2498 19.5965C94.2188 19.6787 94.2607 19.7703 94.3431 19.8013C99.8094 21.8513 106.453 22.6519 112.315 23.3581C118.014 24.0448 123.397 24.6932 126.68 26.3559C129.58 27.8245 131.237 30.0079 131.606 32.8462C131.882 34.9712 131.293 36.6879 131.286 36.7052C131.257 36.7882 131.301 36.8791 131.384 36.9079C131.401 36.9137 131.419 36.9166 131.437 36.9166L131.437 36.9159Z" fill="black"/>
<g id="Group_31">
<path id="Vector_64" d="M127.242 30.0409C127.242 30.0409 124.68 26.7027 121.793 26.2129C121.793 26.2129 120.171 34.2952 120.049 35.9513C120.049 35.9513 124.785 34.6775 127.241 30.0409H127.242Z" fill="#26428B"/>
<path id="Vector_65" d="M120.051 36.1108C120.065 36.1108 120.078 36.1094 120.092 36.1051C120.14 36.0921 124.923 34.7598 127.384 30.1153C127.413 30.0605 127.407 29.9934 127.37 29.9443C127.263 29.8059 124.736 26.5506 121.821 26.0565C121.736 26.0421 121.655 26.0976 121.638 26.182C121.571 26.5123 120.013 34.2931 119.892 35.9399C119.888 35.9911 119.909 36.0416 119.949 36.074C119.978 36.0979 120.014 36.1101 120.05 36.1101L120.051 36.1108ZM127.054 30.0583C124.95 33.9397 121.185 35.4097 120.232 35.7285C120.442 33.8488 121.706 27.4746 121.921 26.3991C124.407 26.9112 126.653 29.5635 127.054 30.059V30.0583Z" fill="black"/>
</g>
<g id="Group_32">
<path id="Vector_66" d="M116.021 24.8713L108.634 23.8542C108.634 23.8542 110.611 31.4598 111.687 33.7081C111.687 33.7081 114.472 29.3478 116.021 24.8713Z" fill="#26428B"/>
<path id="Vector_67" d="M111.688 33.8675C111.742 33.8675 111.793 33.8401 111.822 33.794C111.85 33.75 114.636 29.3665 116.173 24.9233C116.189 24.8785 116.183 24.8288 116.158 24.7884C116.133 24.748 116.091 24.7206 116.043 24.7141L108.656 23.697C108.603 23.6898 108.55 23.7093 108.515 23.749C108.479 23.7886 108.466 23.8435 108.479 23.8947C108.56 24.2056 110.473 31.5406 111.542 33.7774C111.567 33.8293 111.618 33.8639 111.676 33.8675C111.68 33.8675 111.683 33.8675 111.686 33.8675H111.688ZM115.808 25.0026C114.484 28.7412 112.309 32.3975 111.709 33.372C110.741 31.1366 109.175 25.2796 108.849 24.0447L115.807 25.0026H115.808Z" fill="black"/>
</g>
<g id="Group_33">
<path id="Vector_68" d="M104.322 23.4323L96.1351 21.5583C96.1351 21.5583 97.809 29.9183 99.7012 33.3778C99.7012 33.3778 103.36 28.6027 104.322 23.433L104.322 23.4323Z" fill="#26428B"/>
<path id="Vector_69" d="M99.7024 33.5364C99.7516 33.5364 99.7986 33.5133 99.8289 33.4737C99.8658 33.4253 103.522 28.6084 104.48 23.4612C104.496 23.3775 104.442 23.296 104.359 23.2772L96.1717 21.4032C96.119 21.391 96.064 21.4069 96.025 21.4444C95.9859 21.4819 95.9693 21.5367 95.9794 21.5893C95.996 21.673 97.68 30.0128 99.5621 33.4535C99.5882 33.5011 99.6359 33.5314 99.6901 33.5357C99.6945 33.5357 99.6981 33.5357 99.7024 33.5357V33.5364ZM104.138 23.5535C103.269 27.978 100.411 32.1299 99.7248 33.0791C98.0914 29.9025 96.6273 23.1315 96.3424 21.769L104.138 23.5535Z" fill="black"/>
</g>
<g id="Group_34">
<path id="Vector_70" d="M91.9805 20.6076C91.9805 20.6076 85.9206 17.8897 84.4629 16.1838C84.4629 16.1838 83.8063 26.0131 85.0348 29.3593C85.0348 29.3593 91.0188 23.3255 91.9805 20.6076Z" fill="#26428B"/>
<path id="Vector_71" d="M85.0355 29.5188C85.0774 29.5188 85.1187 29.5022 85.149 29.4719C85.3941 29.2245 91.1692 23.3819 92.1316 20.6611C92.159 20.5832 92.1222 20.4974 92.047 20.4635C91.9869 20.4368 86.0029 17.7405 84.585 16.0815C84.5431 16.0324 84.4751 16.0137 84.4137 16.0339C84.3522 16.0541 84.3088 16.1096 84.3045 16.1745C84.2777 16.577 83.6595 26.076 84.8858 29.4157C84.9046 29.4669 84.948 29.5051 85.0015 29.5166C85.0131 29.5188 85.0239 29.5203 85.0355 29.5203V29.5188ZM91.7794 20.6914C90.8048 23.1323 86.0904 28.0502 85.1035 29.0637C84.1353 25.97 84.5012 18.3154 84.6009 16.5583C86.2575 18.1365 90.9009 20.2918 91.7794 20.6921V20.6914Z" fill="black"/>
</g>
<g id="Group_35">
<path id="Vector_72" d="M77.8084 6.05737C77.8084 6.05737 77.9422 11.2155 81.2422 14.2118C81.2422 14.2118 76.9827 16.657 74.384 16.5806C74.384 16.5806 75.4136 13.9767 75.8887 12.0616C76.363 10.1465 77.0456 6.43101 77.8084 6.05737Z" fill="#26428B"/>
<path id="Vector_73" d="M74.507 16.7414C77.1259 16.7414 81.1497 14.4491 81.3225 14.3496C81.3666 14.3243 81.3963 14.2796 81.4013 14.2291C81.4071 14.1786 81.3876 14.1289 81.35 14.0942C78.1368 11.1772 77.969 6.10426 77.9676 6.05305C77.9661 5.99895 77.9372 5.94918 77.8909 5.92105C77.8446 5.89292 77.7868 5.89075 77.7384 5.91456C77.105 6.224 76.6118 8.19823 76.0319 10.7473C75.9257 11.2133 75.8259 11.654 75.734 12.0233C75.2677 13.906 74.246 16.4962 74.2359 16.5222C74.2171 16.5705 74.2221 16.6246 74.2511 16.6679C74.2793 16.7111 74.3277 16.7378 74.379 16.7393C74.421 16.7407 74.4636 16.7414 74.5063 16.7414H74.507ZM80.9747 14.1793C80.1534 14.6287 76.8403 16.3649 74.6177 16.4219C74.8743 15.7547 75.6523 13.6824 76.0442 12.0998C76.1368 11.7269 76.2373 11.2854 76.3436 10.818C76.6878 9.30328 77.1867 7.11049 77.6718 6.40577C77.7709 7.59666 78.2973 11.6122 80.9747 14.1793Z" fill="black"/>
</g>
</g>
<g id="Group_36">
<path id="Vector_74" d="M53.5868 120.221C53.6612 120.221 53.7277 120.169 53.7429 120.094C53.7603 120.008 53.7046 119.924 53.6186 119.906C51.8746 119.553 50.1363 119.07 48.4516 118.473C37.5863 114.621 29.0955 106.157 24.5431 94.6395C24.5106 94.558 24.418 94.5176 24.3363 94.55C24.2546 94.5825 24.2141 94.6748 24.2467 94.7563C28.8337 106.36 37.3918 114.89 48.3453 118.773C50.0445 119.375 51.7972 119.862 53.5557 120.219C53.5665 120.221 53.5774 120.222 53.5875 120.222L53.5868 120.221Z" fill="black"/>
<path id="Vector_75" d="M59.6437 128.113C59.7312 128.113 59.802 128.043 59.8027 127.955C59.8027 127.867 59.7326 127.795 59.6444 127.794C54.8664 127.757 43.3149 122.96 43.2072 122.911C43.1269 122.875 43.0329 122.911 42.9968 122.991C42.9606 123.071 42.9968 123.165 43.0771 123.201C43.1855 123.25 54.8079 128.075 59.6422 128.113H59.6437Z" fill="black"/>
<path id="Vector_76" d="M41.6998 122.5C41.7584 122.5 41.814 122.468 41.8422 122.413C41.882 122.334 41.8502 122.239 41.7714 122.199C36.1648 119.386 31.2914 115.312 27.2872 110.089C27.2337 110.019 27.1339 110.006 27.0637 110.06C26.9936 110.113 26.9806 110.213 27.0341 110.283C31.068 115.544 35.9783 119.649 41.6282 122.484C41.6514 122.495 41.6759 122.5 41.6998 122.5Z" fill="black"/>
</g>
</g>
</g>
</g>
<defs>
<clipPath id="clip0_2066_18">
<rect width="132" height="132" fill="white" transform="matrix(-1 0 0 1 132 0)"/>
</clipPath>
</defs>
</svg>
