<svg width="184" height="37" viewBox="0 0 184 37" fill="none" xmlns="http://www.w3.org/2000/svg">
<path d="M22.0584 16.1719L13.1406 22.9587H14.5999V32.0617H20.1359V26.9427H23.9809V32.0617H29.5169V22.9587H30.9762L22.0584 16.1719Z" fill="#26428B"/>
<path d="M35.3763 22.4661C34.2622 27.1383 31.3368 31.3583 26.9112 33.9493C18.3361 38.9699 7.35463 35.986 2.40389 27.2902C-2.54702 18.5943 0.395458 7.4584 8.97059 2.43779C13.3962 -0.1533 18.4627 -0.612424 23.01 0.745219C19.93 0.424528 16.7265 1.04796 13.843 2.73616C6.55423 7.00364 4.05302 16.4693 8.26125 23.8607C12.4695 31.2523 21.8037 33.7886 29.0927 29.5211C31.9761 27.8329 34.1102 25.3311 35.3763 22.4661Z" fill="black"/>
<path d="M32.3428 16.1719C32.5554 17.8082 32.7281 17.9807 34.3643 18.1934C32.7281 18.406 32.5554 18.5785 32.3428 20.2148C32.1301 18.5785 31.9577 18.406 30.3213 18.1934C31.9577 17.9807 32.1301 17.8083 32.3428 16.1719ZM12.1279 12.6338C12.4469 15.0884 12.7057 15.347 15.1602 15.666C12.7056 15.985 12.4469 16.2446 12.1279 18.6992C11.8089 16.2446 11.5504 15.985 9.0957 15.666C11.5504 15.347 11.8089 15.0885 12.1279 12.6338ZM23.752 6.06445C24.1241 8.92802 24.4256 9.22943 27.2891 9.60156C24.4255 9.9737 24.1241 10.276 23.752 13.1396C23.3798 10.2759 23.0777 9.97372 20.2139 9.60156C23.0776 9.22941 23.3798 8.92819 23.752 6.06445ZM32.3428 8.08594C32.5554 9.72224 32.7281 9.89478 34.3643 10.1074C32.7281 10.3201 32.5554 10.4926 32.3428 12.1289C32.1301 10.4925 31.9577 10.3201 30.3213 10.1074C31.9577 9.89477 32.1301 9.72228 32.3428 8.08594ZM15.666 6.06445C15.9318 8.10981 16.1471 8.32502 18.1924 8.59082C16.1469 8.85664 15.9318 9.07266 15.666 11.1182C15.4002 9.07262 15.1842 8.85664 13.1387 8.59082C15.1842 8.325 15.4002 8.10997 15.666 6.06445ZM25.7734 0C25.9329 1.22706 26.0621 1.35616 27.2891 1.51562C26.0619 1.67511 25.9329 1.80497 25.7734 3.03223C25.6139 1.8049 25.4842 1.67512 24.2568 1.51562C25.4841 1.35614 25.614 1.22722 25.7734 0Z" fill="black"/>
<path d="M179.614 36.0878C178.713 36.0878 177.902 35.9284 177.182 35.6096C176.475 35.2769 175.913 34.8333 175.497 34.2789C175.082 33.7105 174.86 33.0798 174.832 32.3867H177.286C177.327 32.8719 177.556 33.2808 177.972 33.6135C178.401 33.9323 178.935 34.0917 179.573 34.0917C180.238 34.0917 180.751 33.967 181.111 33.7175C181.486 33.4541 181.673 33.1214 181.673 32.7194C181.673 32.2897 181.465 31.9709 181.049 31.763C180.647 31.555 180.002 31.3263 179.115 31.0768C178.256 30.8412 177.556 30.6124 177.015 30.3907C176.475 30.1689 176.003 29.8293 175.601 29.3718C175.213 28.9144 175.019 28.3114 175.019 27.5629C175.019 26.9529 175.199 26.3985 175.56 25.8995C175.92 25.3866 176.433 24.9846 177.098 24.6935C177.778 24.4024 178.554 24.2568 179.427 24.2568C180.73 24.2568 181.777 24.5895 182.567 25.2549C183.371 25.9064 183.801 26.8005 183.856 27.9371H181.486C181.444 27.4242 181.236 27.0153 180.862 26.7104C180.488 26.4054 179.982 26.2529 179.344 26.2529C178.72 26.2529 178.242 26.3708 177.909 26.6064C177.577 26.8421 177.41 27.1539 177.41 27.5421C177.41 27.847 177.521 28.1035 177.743 28.3114C177.965 28.5193 178.235 28.6857 178.554 28.8104C178.873 28.9213 179.344 29.0669 179.968 29.2471C180.799 29.4689 181.479 29.6976 182.005 29.9332C182.546 30.155 183.01 30.4877 183.399 30.9313C183.787 31.3748 183.988 31.964 184.002 32.6986C184.002 33.3501 183.821 33.9323 183.461 34.4452C183.101 34.9581 182.588 35.3601 181.922 35.6512C181.271 35.9423 180.501 36.0878 179.614 36.0878Z" fill="black"/>
<path d="M173.527 29.8916C173.527 30.3213 173.499 30.7095 173.444 31.056H164.69C164.759 31.9709 165.099 32.7056 165.709 33.26C166.319 33.8145 167.067 34.0917 167.954 34.0917C169.23 34.0917 170.131 33.5581 170.657 32.4907H173.215C172.868 33.5442 172.238 34.4106 171.323 35.0898C170.422 35.7552 169.299 36.0878 167.954 36.0878C166.859 36.0878 165.875 35.8453 165.002 35.3601C164.142 34.8611 163.463 34.168 162.964 33.2808C162.479 32.3798 162.236 31.3402 162.236 30.1619C162.236 28.9837 162.472 27.951 162.943 27.0638C163.428 26.1628 164.101 25.4697 164.96 24.9846C165.833 24.4994 166.831 24.2568 167.954 24.2568C169.036 24.2568 169.999 24.4925 170.844 24.9638C171.69 25.4351 172.348 26.1004 172.82 26.9599C173.291 27.8054 173.527 28.7827 173.527 29.8916ZM171.052 29.1431C171.039 28.2698 170.727 27.5698 170.117 27.043C169.507 26.5163 168.751 26.2529 167.85 26.2529C167.032 26.2529 166.332 26.5163 165.75 27.043C165.168 27.5559 164.822 28.2559 164.711 29.1431H171.052Z" fill="black"/>
<path d="M155.695 24.2568C156.596 24.2568 157.4 24.444 158.107 24.8182C158.828 25.1925 159.389 25.747 159.791 26.4816C160.207 27.2163 160.415 28.1035 160.415 29.1431V35.9007H158.065V29.4966C158.065 28.4708 157.809 27.6876 157.296 27.147C156.783 26.5925 156.083 26.3153 155.196 26.3153C154.309 26.3153 153.602 26.5925 153.075 27.147C152.562 27.6876 152.306 28.4708 152.306 29.4966V35.9007H149.956V29.4966C149.956 28.4708 149.7 27.6876 149.187 27.147C148.674 26.5925 147.974 26.3153 147.087 26.3153C146.2 26.3153 145.493 26.5925 144.966 27.147C144.453 27.6876 144.197 28.4708 144.197 29.4966V35.9007H141.826V24.444H144.197V25.7539C144.585 25.2826 145.077 24.9153 145.673 24.6519C146.269 24.3885 146.907 24.2568 147.586 24.2568C148.501 24.2568 149.318 24.4509 150.039 24.839C150.76 25.2272 151.315 25.7886 151.703 26.5232C152.049 25.8301 152.59 25.2826 153.324 24.8806C154.059 24.4648 154.849 24.2568 155.695 24.2568Z" fill="black"/>
<path d="M133.94 36.0878C132.859 36.0878 131.881 35.8453 131.008 35.3601C130.135 34.8611 129.449 34.168 128.95 33.2808C128.451 32.3798 128.201 31.3402 128.201 30.1619C128.201 28.9976 128.458 27.9649 128.97 27.0638C129.483 26.1628 130.183 25.4697 131.071 24.9846C131.958 24.4994 132.949 24.2568 134.044 24.2568C135.139 24.2568 136.13 24.4994 137.017 24.9846C137.904 25.4697 138.604 26.1628 139.117 27.0638C139.63 27.9649 139.887 28.9976 139.887 30.1619C139.887 31.3263 139.623 32.359 139.096 33.26C138.57 34.1611 137.849 34.8611 136.934 35.3601C136.033 35.8453 135.035 36.0878 133.94 36.0878ZM133.94 34.0294C134.55 34.0294 135.118 33.8838 135.645 33.5927C136.186 33.3016 136.622 32.865 136.955 32.2828C137.288 31.7006 137.454 30.9936 137.454 30.1619C137.454 29.3302 137.294 28.6302 136.976 28.0619C136.657 27.4797 136.234 27.043 135.707 26.7519C135.181 26.4609 134.612 26.3153 134.002 26.3153C133.392 26.3153 132.824 26.4609 132.297 26.7519C131.784 27.043 131.376 27.4797 131.071 28.0619C130.766 28.6302 130.613 29.3302 130.613 30.1619C130.613 31.3956 130.925 32.3521 131.549 33.0313C132.186 33.6967 132.983 34.0294 133.94 34.0294Z" fill="black"/>
<path d="M126.257 21.4497V35.9006H123.886V29.5796H117.087V35.9006H114.717V21.4497H117.087V27.6459H123.886V21.4497H126.257Z" fill="black"/>
<path d="M72.3252 24.2568C73.4064 24.2568 74.3703 24.4926 75.2158 24.9639C76.0612 25.4351 76.7192 26.1007 77.1904 26.96C77.6617 27.8055 77.8975 28.7827 77.8975 29.8916C77.8975 30.3212 77.8699 30.7092 77.8145 31.0557H69.0605C69.1299 31.9705 69.4702 32.7053 70.0801 33.2598C70.6899 33.8142 71.4381 34.0918 72.3252 34.0918C73.6005 34.0918 74.5016 33.5576 75.0283 32.4902H77.5859C77.2394 33.5437 76.6082 34.4106 75.6934 35.0898C74.7924 35.7551 73.6696 36.0879 72.3252 36.0879C71.2303 36.0879 70.2462 35.8454 69.373 35.3604C68.5137 34.8614 67.834 34.1683 67.335 33.2812C66.8498 32.3803 66.6074 31.3403 66.6074 30.1621C66.6074 28.9839 66.8432 27.9506 67.3145 27.0635C67.7996 26.1626 68.4718 25.4695 69.3311 24.9844C70.2043 24.4992 71.2025 24.2569 72.3252 24.2568ZM84.4434 24.2568C85.3443 24.2569 86.1276 24.4375 86.793 24.7979C87.472 25.1444 88.0131 25.5808 88.415 26.1074V24.4443H90.8057V35.9004H88.415V34.1953C88.013 34.7359 87.4646 35.1865 86.7715 35.5469C86.0785 35.9072 85.2884 36.0879 84.4014 36.0879C83.4173 36.0879 82.516 35.8378 81.6982 35.3389C80.8807 34.8261 80.2292 34.1195 79.7441 33.2188C79.2728 32.3039 79.0371 31.2706 79.0371 30.1201C79.0371 28.9697 79.2729 27.9506 79.7441 27.0635C80.2293 26.1765 80.8805 25.49 81.6982 25.0049C82.5299 24.5059 83.4453 24.2568 84.4434 24.2568ZM50.2041 21.4502C51.7428 21.4502 53.0878 21.7477 54.2383 22.3438C55.4026 22.9259 56.2962 23.772 56.9199 24.8809C57.5575 25.9759 57.877 27.2582 57.877 28.7275C57.8769 30.1967 57.5575 31.4716 56.9199 32.5527C56.2962 33.6339 55.4025 34.4657 54.2383 35.0479C53.0878 35.6162 51.7428 35.9004 50.2041 35.9004H45.4844V21.4502H50.2041ZM65.623 26.71H65.0205C64.0918 26.71 63.3846 26.9457 62.8994 27.417C62.4281 27.8883 62.1924 28.7067 62.1924 29.8711V35.9004H59.8223V24.4443H62.1924V26.1074C62.5389 25.5254 62.9963 25.0747 63.5645 24.7559C64.1466 24.4232 64.8331 24.2569 65.623 24.2568V26.71ZM107.383 24.2568C108.284 24.2569 109.087 24.4442 109.794 24.8184C110.515 25.1926 111.077 25.7468 111.479 26.4814C111.894 27.2161 112.103 28.1039 112.103 29.1436V35.9004H109.753V29.4961C109.753 28.4707 109.496 27.688 108.983 27.1475C108.471 26.5931 107.771 26.3155 106.884 26.3154C105.997 26.3154 105.289 26.593 104.763 27.1475C104.25 27.688 103.993 28.4706 103.993 29.4961V35.9004H101.644V29.4961C101.643 28.4706 101.387 27.688 100.874 27.1475C100.361 26.593 99.6615 26.3155 98.7744 26.3154C97.8873 26.3154 97.1801 26.593 96.6533 27.1475C96.1407 27.688 95.8839 28.4707 95.8838 29.4961V35.9004H93.5137V24.4443H95.8838V25.7539C96.2719 25.2826 96.7644 24.9157 97.3604 24.6523C97.9564 24.389 98.5942 24.2568 99.2734 24.2568C100.188 24.2569 101.006 24.4508 101.727 24.8389C102.447 25.227 103.002 25.7888 103.391 26.5234C103.737 25.8305 104.277 25.2828 105.012 24.8809C105.746 24.465 106.537 24.2568 107.383 24.2568ZM84.9424 26.3154C84.3325 26.3154 83.764 26.4676 83.2373 26.7725C82.7106 27.0636 82.2809 27.5008 81.9482 28.083C81.6295 28.6512 81.4698 29.3302 81.4697 30.1201C81.4697 30.9101 81.6295 31.6032 81.9482 32.1992C82.2809 32.7953 82.7106 33.2534 83.2373 33.5723C83.7778 33.8771 84.3464 34.0293 84.9424 34.0293C85.5522 34.0293 86.1208 33.8772 86.6475 33.5723C87.1742 33.2673 87.5972 32.8234 87.916 32.2412C88.2486 31.6452 88.415 30.9521 88.415 30.1621C88.415 29.3721 88.2486 28.6857 87.916 28.1035C87.5972 27.5213 87.1742 27.0774 86.6475 26.7725C86.1208 26.4675 85.5522 26.3155 84.9424 26.3154ZM47.8545 33.9668H50.2041C51.8952 33.9668 53.1918 33.5096 54.0928 32.5947C54.9937 31.6799 55.4443 30.3907 55.4443 28.7275C55.4443 27.0503 54.9938 25.7395 54.0928 24.7969C53.1918 23.8543 51.8952 23.3838 50.2041 23.3838H47.8545V33.9668ZM72.2217 26.2529C71.4038 26.2529 70.7033 26.5162 70.1211 27.043C69.539 27.5558 69.1929 28.2565 69.082 29.1436H75.4238C75.41 28.2704 75.098 27.5697 74.4883 27.043C73.8784 26.5163 73.1226 26.253 72.2217 26.2529Z" fill="#26428B"/>
<path d="M98.7142 9.67679C98.7142 10.1065 98.6865 10.4946 98.631 10.8412H89.8774C89.9467 11.7561 90.2863 12.4907 90.8962 13.0452C91.5061 13.5997 92.2546 13.8769 93.1418 13.8769C94.4171 13.8769 95.3181 13.3432 95.8448 12.2759H98.4023C98.0558 13.3294 97.4251 14.1957 96.5102 14.8749C95.6092 15.5403 94.4864 15.873 93.1418 15.873C92.0467 15.873 91.0625 15.6304 90.1892 15.1452C89.3298 14.6462 88.6506 13.9531 88.1516 13.066C87.6664 12.165 87.4238 11.1253 87.4238 9.94709C87.4238 8.76885 87.6595 7.73615 88.1308 6.84899C88.6159 5.94798 89.2882 5.25489 90.1477 4.76973C91.021 4.28457 92.019 4.04199 93.1418 4.04199C94.223 4.04199 95.1864 4.27764 96.032 4.74894C96.8775 5.22024 97.536 5.8856 98.0073 6.74503C98.4786 7.5906 98.7142 8.56785 98.7142 9.67679ZM96.2399 8.92826C96.226 8.05497 95.9141 7.35495 95.3042 6.8282C94.6943 6.30146 93.9388 6.03808 93.0378 6.03808C92.22 6.03808 91.52 6.30146 90.9378 6.8282C90.3556 7.34109 90.009 8.0411 89.8982 8.92826H96.2399Z" fill="black"/>
<path d="M81.6383 9.96788L86.9196 15.6858H83.7175L79.4758 10.758V15.6858H77.1055V0.299316H79.4758V9.24014L83.6343 4.22912H86.9196L81.6383 9.96788Z" fill="black"/>
<path d="M62.627 9.90551C62.627 8.75498 62.8626 7.73615 63.3339 6.84899C63.8191 5.96184 64.4706 5.27569 65.2884 4.79053C66.1201 4.2915 67.035 4.04199 68.033 4.04199C68.934 4.04199 69.7172 4.22219 70.3826 4.5826C71.0618 4.92914 71.6024 5.36579 72.0044 5.89253V4.22913H74.3956V15.6859H72.0044V13.9809C71.6024 14.5215 71.0549 14.972 70.3618 15.3324C69.6687 15.6928 68.8786 15.873 67.9914 15.873C67.0073 15.873 66.1062 15.6235 65.2884 15.1245C64.4706 14.6116 63.8191 13.9046 63.3339 13.0036C62.8626 12.0887 62.627 11.056 62.627 9.90551ZM72.0044 9.94709C72.0044 9.15697 71.8381 8.47082 71.5054 7.88863C71.1866 7.30643 70.7638 6.86286 70.237 6.5579C69.7103 6.25294 69.142 6.10046 68.5321 6.10046C67.9221 6.10046 67.3538 6.25294 66.8271 6.5579C66.3003 6.84899 65.8706 7.28564 65.5379 7.86783C65.2191 8.43616 65.0597 9.11539 65.0597 9.90551C65.0597 10.6956 65.2191 11.3887 65.5379 11.9848C65.8706 12.5808 66.3003 13.0383 66.8271 13.3571C67.3677 13.662 67.936 13.8145 68.5321 13.8145C69.142 13.8145 69.7103 13.662 70.237 13.3571C70.7638 13.0521 71.1866 12.6085 71.5054 12.0264C71.8381 11.4303 72.0044 10.7372 72.0044 9.94709Z" fill="black"/>
<path d="M60.7046 1.23486V15.6857H58.3342V5.78845L53.9262 15.6857H52.2836L47.8547 5.78845V15.6857H45.4844V1.23486H48.0419L53.1153 12.5668L58.1679 1.23486H60.7046Z" fill="black"/>
</svg>
